<?xml version="1.0" standalone="no"?><!DOCTYPE svg PUBLIC "-//W3C//DTD SVG 1.1//EN" "http://www.w3.org/Graphics/SVG/1.1/DTD/svg11.dtd"><svg t="1578313381954" class="icon" viewBox="0 0 1024 1024" version="1.1" xmlns="http://www.w3.org/2000/svg" p-id="1857" xmlns:xlink="http://www.w3.org/1999/xlink" width="128" height="128"><defs><style type="text/css"></style></defs><path d="M913.76877909 1028.34424263H110.23122091A99.90599111 99.90599111 0 0 1 8.89535374 925.07539342V172.69563506C8.89535374 113.67351637 37.65175637 82.48102798 88.33292971 75.09333333h79.43757482c21.71293696 0 26.47919161 4.34258717 26.47919275 26.47919161s-4.76625465 26.47919161-26.47919275 26.47919275H114.81212131a66.19797959 66.19797959 0 0 0-52.95838435 52.95838322v158.87515192l12.1804288 2.46256413a5.56063061 5.56063061 0 0 0-1.00620971-2.46256413l876.93787819 2.46256413 12.1804288-2.46256413v-158.87515192a66.19797959 66.19797959 0 0 0-52.95838435-52.95838322h-52.95838322a32.70180181 32.70180181 0 0 1-26.47919275-26.47919275c0-14.74890979 4.76625465-19.09149696 26.47919275-26.47919161h52.95838322a99.16457415 99.16457415 0 0 1 105.91676757 97.60230173V925.07539342a99.90599111 99.90599111 0 0 1-101.33586717 103.26884921zM962.14626304 419.3228288v0.15887474H61.64190435v518.22426453A35.16436707 35.16436707 0 0 0 98.52741859 975.38585827h819.34563556c22.13660445 0 44.27320889-3.94539918 44.27320889-26.4791916V419.48170354s7.38769465-0.15887474 0-0.15887474z m-119.15636395 344.22949433A66.19797959 66.19797959 0 1 1 909.18787869 697.35434354a66.19797959 66.19797959 0 0 1-66.1979796 66.19797959z m-317.75030272 0A66.19797959 66.19797959 0 1 1 591.43757597 697.35434354a66.19797959 66.19797959 0 0 1-66.1979796 66.19797959z m-344.22949546 0A66.19797959 66.19797959 0 1 1 247.2080805 697.35434354a66.19797959 66.19797959 0 0 1-66.19797959 66.19797959z m-107.98214486-423.6670703H61.85373696c0-6.38148494 8.71165383-5.13696313 11.17421909 0z m645.27142798-137.69179818a34.42294898 34.42294898 0 0 1-36.19705514-36.88551424V32.54127161a36.19705515 36.19705515 0 1 1 72.39411029 0v132.7666688a34.42294898 34.42294898 0 0 1-36.19705515 36.88551424zM580.84589909 135.81012082h-130.3835409a48.27156707 48.27156707 0 0 1-36.19705515-29.49782073A40.43372658 40.43372658 0 0 1 443.15410091 62.0390912h137.69179818A34.42294898 34.42294898 0 0 1 616.96351687 98.92460658 34.42294898 34.42294898 0 0 1 580.84589909 135.81012082z m-253.43234616 58.99563918a32.35757283 32.35757283 0 0 1-36.19705515 0 38.55370354 38.55370354 0 0 1-14.48411819-29.49781959V25.15357696A39.13624576 39.13624576 0 0 1 312.92943474-4.34424263a34.42294898 34.42294898 0 0 1 36.19705628 36.88551424v132.7666688a30.84825827 30.84825827 0 0 1-21.71293809 29.49781959z" fill="#2c2c2c" p-id="1858"></path></svg>