<?xml version="1.0" standalone="no"?><!DOCTYPE svg PUBLIC "-//W3C//DTD SVG 1.1//EN" "http://www.w3.org/Graphics/SVG/1.1/DTD/svg11.dtd"><svg t="1578207163572" class="icon" viewBox="0 0 1024 1024" version="1.1" xmlns="http://www.w3.org/2000/svg" p-id="1143" xmlns:xlink="http://www.w3.org/1999/xlink" width="128" height="128"><defs><style type="text/css"></style></defs><path d="M757.389241 79.448276c-8.209655-40.236138-43.855448-70.62069-86.49269-70.62069-9.76331 0-17.655172 7.891862-17.655172 17.655172s7.891862 17.655172 17.655172 17.655172c29.201655 0 52.965517 23.763862 52.965517 52.965517s-23.763862 52.965517-52.965517 52.965517c-9.76331 0-17.655172 7.891862-17.655172 17.655172s7.891862 17.655172 17.655172 17.655172c42.619586 0 78.283034-30.384552 86.49269-70.62069L988.689655 114.758621l0 158.896552L35.310345 273.655172l0-158.896552 247.172414 0 52.965517 0c9.76331 0 17.655172-7.891862 17.655172-17.655172s-7.891862-17.655172-17.655172-17.655172l-32.061793 0c7.309241-20.51531 26.729931-35.310345 49.716966-35.310345 29.201655 0 52.965517 23.763862 52.965517 52.965517s-23.763862 52.965517-52.965517 52.965517c-9.76331 0-17.655172 7.891862-17.655172 17.655172s7.891862 17.655172 17.655172 17.655172c48.67531 0 88.275862-39.600552 88.275862-88.275862s-39.600552-88.275862-88.275862-88.275862c-42.619586 0-78.283034 30.384552-86.49269 70.62069L0 79.448276l0 229.517241 0 706.206897 1024 0 0-706.206897 0-229.517241L757.389241 79.448276zM988.689655 979.862069 35.310345 979.862069l0-670.896552 953.37931 0L988.689655 979.862069z" p-id="1144"></path><path d="M459.034483 44.137931c29.201655 0 52.965517 23.763862 52.965517 52.965517s-23.763862 52.965517-52.965517 52.965517c-9.76331 0-17.655172 7.891862-17.655172 17.655172s7.891862 17.655172 17.655172 17.655172c48.67531 0 88.275862-39.600552 88.275862-88.275862s-39.600552-88.275862-88.275862-88.275862c-9.76331 0-17.655172 7.891862-17.655172 17.655172S449.271172 44.137931 459.034483 44.137931z" p-id="1145"></path><path d="M564.965517 44.137931c29.201655 0 52.965517 23.763862 52.965517 52.965517s-23.763862 52.965517-52.965517 52.965517c-9.76331 0-17.655172 7.891862-17.655172 17.655172s7.891862 17.655172 17.655172 17.655172c48.67531 0 88.275862-39.600552 88.275862-88.275862s-39.600552-88.275862-88.275862-88.275862c-9.76331 0-17.655172 7.891862-17.655172 17.655172S555.202207 44.137931 564.965517 44.137931z" p-id="1146"></path><path d="M388.413793 432.551724m-17.655172 0a1 1 0 1 0 35.310345 0 1 1 0 1 0-35.310345 0Z" p-id="1147"></path><path d="M512 432.551724m-17.655172 0a1 1 0 1 0 35.310345 0 1 1 0 1 0-35.310345 0Z" p-id="1148"></path><path d="M635.586207 432.551724m-17.655172 0a1 1 0 1 0 35.310345 0 1 1 0 1 0-35.310345 0Z" p-id="1149"></path><path d="M759.172414 432.551724m-17.655172 0a1 1 0 1 0 35.310345 0 1 1 0 1 0-35.310345 0Z" p-id="1150"></path><path d="M882.758621 432.551724m-17.655172 0a1 1 0 1 0 35.310345 0 1 1 0 1 0-35.310345 0Z" p-id="1151"></path><path d="M141.241379 573.793103m-17.655172 0a1 1 0 1 0 35.310345 0 1 1 0 1 0-35.310345 0Z" p-id="1152"></path><path d="M264.827586 573.793103m-17.655172 0a1 1 0 1 0 35.310345 0 1 1 0 1 0-35.310345 0Z" p-id="1153"></path><path d="M388.413793 573.793103m-17.655172 0a1 1 0 1 0 35.310345 0 1 1 0 1 0-35.310345 0Z" p-id="1154"></path><path d="M512 573.793103m-17.655172 0a1 1 0 1 0 35.310345 0 1 1 0 1 0-35.310345 0Z" p-id="1155"></path><path d="M635.586207 573.793103m-17.655172 0a1 1 0 1 0 35.310345 0 1 1 0 1 0-35.310345 0Z" p-id="1156"></path><path d="M759.172414 573.793103m-17.655172 0a1 1 0 1 0 35.310345 0 1 1 0 1 0-35.310345 0Z" p-id="1157"></path><path d="M882.758621 573.793103m-17.655172 0a1 1 0 1 0 35.310345 0 1 1 0 1 0-35.310345 0Z" p-id="1158"></path><path d="M141.241379 697.37931m-17.655172 0a1 1 0 1 0 35.310345 0 1 1 0 1 0-35.310345 0Z" p-id="1159"></path><path d="M264.827586 697.37931m-17.655172 0a1 1 0 1 0 35.310345 0 1 1 0 1 0-35.310345 0Z" p-id="1160"></path><path d="M388.413793 697.37931m-17.655172 0a1 1 0 1 0 35.310345 0 1 1 0 1 0-35.310345 0Z" p-id="1161"></path><path d="M512 697.37931m-17.655172 0a1 1 0 1 0 35.310345 0 1 1 0 1 0-35.310345 0Z" p-id="1162"></path><path d="M635.586207 697.37931m-17.655172 0a1 1 0 1 0 35.310345 0 1 1 0 1 0-35.310345 0Z" p-id="1163"></path><path d="M759.172414 697.37931m-17.655172 0a1 1 0 1 0 35.310345 0 1 1 0 1 0-35.310345 0Z" p-id="1164"></path><path d="M882.758621 697.37931m-17.655172 0a1 1 0 1 0 35.310345 0 1 1 0 1 0-35.310345 0Z" p-id="1165"></path><path d="M141.241379 838.62069m-17.655172 0a1 1 0 1 0 35.310345 0 1 1 0 1 0-35.310345 0Z" p-id="1166"></path><path d="M264.827586 838.62069m-17.655172 0a1 1 0 1 0 35.310345 0 1 1 0 1 0-35.310345 0Z" p-id="1167"></path><path d="M388.413793 838.62069m-17.655172 0a1 1 0 1 0 35.310345 0 1 1 0 1 0-35.310345 0Z" p-id="1168"></path><path d="M512 838.62069m-17.655172 0a1 1 0 1 0 35.310345 0 1 1 0 1 0-35.310345 0Z" p-id="1169"></path><path d="M635.586207 838.62069m-17.655172 0a1 1 0 1 0 35.310345 0 1 1 0 1 0-35.310345 0Z" p-id="1170"></path></svg>