<?xml version="1.0" standalone="no"?><!DOCTYPE svg PUBLIC "-//W3C//DTD SVG 1.1//EN" "http://www.w3.org/Graphics/SVG/1.1/DTD/svg11.dtd"><svg t="1578313386488" class="icon" viewBox="0 0 1024 1024" version="1.1" xmlns="http://www.w3.org/2000/svg" p-id="1979" xmlns:xlink="http://www.w3.org/1999/xlink" width="128" height="128"><defs><style type="text/css"></style></defs><path d="M601.56470158 491.18460131l358.93222514 0c33.63016249 0 60.89080832-27.11034994 60.89080832-60.55642908L1021.38773504 65.04214983c0-33.43908864-27.25948075-60.55642909-60.89080832-60.55642908L601.56470158 4.48572075c-33.62666723 0-60.87682731 27.11734045-60.87682731 60.55642908l0 365.58718748C540.68787427 464.07425138 567.93686926 491.18460131 601.56470158 491.18460131zM583.18083413 65.04214983c0-9.98360861 8.24530261-18.10774243 18.38270237-18.10774244l358.93222513 0c10.13739975 0 18.40017863 8.12529891 18.40017864 18.10774244l0 365.58718748c0 9.98244352-8.26277888 18.10774243-18.40017864 18.10774244L601.56470158 448.73707975c-10.13739975 0-18.38270237-8.12529891-18.38270236-18.10774244L583.18199922 65.04214983z" fill="#2c2c2c" p-id="1980"></path><path d="M601.56470158 1020.59547762l358.93222514 0c33.63016249 0 60.89080832-27.12549603 60.89080832-60.57856569L1021.38773504 594.44720071c0-33.44840931-27.25948075-60.56458467-60.89080832-60.56458468L601.56470158 533.88261603c-33.62666723 0-60.87682731 27.11617536-60.87682731 60.56458468l0 365.56971122C540.68787427 993.46998158 567.93686926 1020.59547762 601.56470158 1020.59547762z" fill="#2c2c2c" p-id="1981"></path><path d="M65.06428643 1020.59547762l358.94504107 0c33.62666723 0 60.87682731-27.12549603 60.87682731-60.57856569L484.88615481 594.44720071c0-33.44840931-27.25016007-60.56458467-60.87682731-60.56458468L65.06428643 533.88261603c-33.61268622 0-60.87799239 27.11617536-60.87799238 60.56458468l0 365.56971122C4.18629405 993.46998158 31.45160021 1020.59547762 65.06428643 1020.59547762zM46.68041899 594.44720071c0-9.99059911 8.25811854-18.11589803 18.38386744-18.11589802l358.94504107 0c10.13856483 0 18.38386745 8.12529891 18.38386745 18.11589802l0 365.56971122c0 10.00458013-8.24530261 18.12987904-18.38386745 18.12987904L65.06428643 978.14679097c-10.12458382 0-18.38386745-8.12529891-18.38386744-18.12987904L46.68041899 594.44720071z" fill="#2c2c2c" p-id="1982"></path><path d="M65.06428643 490.10107278l358.94504107 0c33.62666723 0 60.87682731-27.11734045 60.87682731-60.56458467L484.88615481 63.9586213c0-33.44724423-27.25016007-60.56341959-60.87682731-60.56341959L65.06428643 3.39520171c-33.61268622 0-60.87799239 27.11734045-60.87799238 60.56341959l0 365.57903189C4.18629405 462.98373234 31.45160021 490.10107278 65.06428643 490.10107278zM46.68041899 63.9586213c0-9.99059911 8.25811854-18.11473294 18.38386744-18.11473295l358.94504107 0c10.13856483 0 18.38386745 8.12529891 18.38386745 18.11473295l0 365.57903189c0 9.99059911-8.24530261 18.11473294-18.38386745 18.11473294L65.06428643 447.65238613c-10.12458382 0-18.38386745-8.12413383-18.38386744-18.11473294L46.68041899 63.9586213z" fill="#2c2c2c" p-id="1983"></path></svg>