<?xml version="1.0" standalone="no"?><!DOCTYPE svg PUBLIC "-//W3C//DTD SVG 1.1//EN" "http://www.w3.org/Graphics/SVG/1.1/DTD/svg11.dtd"><svg t="1578313373966" class="icon" viewBox="0 0 1024 1024" version="1.1" xmlns="http://www.w3.org/2000/svg" p-id="1734" xmlns:xlink="http://www.w3.org/1999/xlink" width="128" height="128"><defs><style type="text/css"></style></defs><path d="M949.93066667 230.4H766.40711111V73.95555555c0-38.57066667-31.40266667-69.97333333-69.97333333-69.97333333H327.56622222c-38.57066667 0-69.97333333 31.40266667-69.97333333 69.97333333v156.44444445H73.84177778c-38.57066667 0-69.97333333 31.40266667-69.97333333 69.97333333v649.67111112c0 38.57066667 31.40266667 69.97333333 69.97333333 69.97333333h876.08888889c38.57066667 0 69.97333333-31.40266667 69.97333333-69.97333333V300.37333333c0-38.57066667-31.40266667-69.97333333-69.97333333-69.97333333zM306.51733333 73.95555555c0-11.60533333 9.44355555-21.04888889 21.04888889-21.04888888h368.86755556c11.60533333 0 21.04888889 9.44355555 21.04888889 21.04888888v876.0888889c0 11.37777778-8.98844445 20.59377778-20.25244445 21.04888888h-57.45777777v-46.53511111c0-6.25777778-2.73066667-12.85688889-7.168-17.29422222-4.20977778-4.20977778-11.15022222-7.39555555-17.29422223-7.168-13.19822222 0.56888889-24.46222222 10.69511111-24.46222222 24.46222222v46.53511111H435.65511111V831.82933333c0-5.46133333-0.34133333-11.264-0.11377778-16.83911111 4.43733333-0.11377778 8.98844445 0.11377778 13.42577778 0.11377778h124.81422222c5.57511111 0 11.49155555-0.34133333 17.18044445-0.11377778 0 2.61688889-0.11377778 5.34755555-0.11377778 7.96444445v11.71911111c0 6.25777778 2.73066667 12.85688889 7.168 17.29422222 4.20977778 4.20977778 11.15022222 7.39555555 17.29422222 7.168 13.19822222-0.56888889 24.46222222-10.69511111 24.46222223-24.46222222v-20.25244445c0-8.64711111-2.048-17.408-6.59911112-24.91733333-6.144-10.24-15.47377778-17.06666667-26.51022222-21.04888889-9.55733333-3.41333333-21.73155555-2.16177778-31.744-2.16177778H438.04444445c-5.57511111 0-11.264 0.11377778-16.72533334 1.70666667-20.36622222 5.80266667-34.24711111 24.576-34.58844444 45.51111111-0.34133333 24.576 0 49.26577778 0 73.84177778v83.74044444h-59.96088889c-11.264-0.45511111-20.25244445-9.67111111-20.25244445-21.04888888V73.95555555z m-253.72444444 875.97511112V300.37333333c0-11.60533333 9.44355555-21.04888889 21.04888889-21.04888888h183.75111111V950.04444445c0 7.28177778 1.13777778 14.336 3.18577778 21.04888888H73.84177778c-11.60533333-0.11377778-21.04888889-9.55733333-21.04888889-21.16266666z m918.18666666 0c0 11.60533333-9.44355555 21.04888889-21.04888888 21.04888888H763.22133333c2.048-6.59911111 3.18577778-13.65333333 3.18577778-21.04888888V279.32444445h183.52355556c11.60533333 0 21.04888889 9.44355555 21.04888888 21.04888888v649.55733334z" fill="#2c2c2c" p-id="1735"></path><path d="M190.00888889 358.96888889h-80.32711111c-12.51555555 0-22.75555555 10.24-22.75555556 22.75555556v36.40888888c0 12.51555555 10.24 22.75555555 22.75555556 22.75555556H190.00888889c12.51555555 0 22.75555555-10.24 22.75555556-22.75555556v-36.40888888c0-12.51555555-10.24-22.75555555-22.75555556-22.75555556z m0 154.28266666h-80.32711111c-12.51555555 0-22.75555555 10.24-22.75555556 22.75555556v36.40888889c0 12.51555555 10.24 22.75555555 22.75555556 22.75555555H190.00888889c12.51555555 0 22.75555555-10.24 22.75555556-22.75555555v-36.40888889c0-12.51555555-10.24-22.75555555-22.75555556-22.75555556z m0 162.70222223h-80.32711111c-12.51555555 0-22.75555555 10.24-22.75555556 22.75555555v36.40888889c0 12.51555555 10.24 22.75555555 22.75555556 22.75555556H190.00888889c12.51555555 0 22.75555555-10.24 22.75555556-22.75555556v-36.40888889c0-12.51555555-10.24-22.75555555-22.75555556-22.75555555z m0 151.89333333h-80.32711111c-12.51555555 0-22.75555555 10.24-22.75555556 22.75555556v36.40888888c0 12.51555555 10.24 22.75555555 22.75555556 22.75555556H190.00888889c12.51555555 0 22.75555555-10.24 22.75555556-22.75555556v-36.40888888c0-12.51555555-10.24-22.75555555-22.75555556-22.75555556z m720.09955556-470.12977778h-80.32711112c-12.51555555 0-22.75555555 10.24-22.75555555 22.75555556v36.40888889c0 12.51555555 10.24 22.75555555 22.75555555 22.75555555h80.32711112c12.51555555 0 22.75555555-10.24 22.75555555-22.75555555v-36.40888889c0-12.51555555-10.24-22.75555555-22.75555555-22.75555556z m0 154.28266667h-80.32711112c-12.51555555 0-22.75555555 10.24-22.75555555 22.75555555v36.4088889c0 12.51555555 10.24 22.75555555 22.75555555 22.75555555h80.32711112c12.51555555 0 22.75555555-10.24 22.75555555-22.75555555v-36.4088889c0-12.51555555-10.24-22.75555555-22.75555555-22.75555555z m0 162.70222222h-80.32711112c-12.51555555 0-22.75555555 10.24-22.75555555 22.75555556v36.40888889c0 12.51555555 10.24 22.75555555 22.75555555 22.75555555h80.32711112c12.51555555 0 22.75555555-10.24 22.75555555-22.75555555v-36.40888889c0-12.51555555-10.24-22.75555555-22.75555555-22.75555556z m0 151.89333333h-80.32711112c-12.51555555 0-22.75555555 10.24-22.75555555 22.75555556v36.40888889c0 12.51555555 10.24 22.75555555 22.75555555 22.75555555h80.32711112c12.51555555 0 22.75555555-10.24 22.75555555-22.75555555v-36.40888889c0-12.51555555-10.24-22.75555555-22.75555555-22.75555556z m-525.65333334-591.64444444h227.44177778c10.46755555 0 21.04888889 0.11377778 31.51644444 0h0.45511112c6.25777778 0 12.85688889-2.73066667 17.29422222-7.168 4.20977778-4.20977778 7.39555555-11.15022222 7.168-17.29422222-0.56888889-13.19822222-10.69511111-24.46222222-24.46222222-24.46222222H416.42666667c-10.46755555 0-21.04888889-0.11377778-31.51644445 0h-0.45511111c-6.25777778 0-12.85688889 2.73066667-17.29422222 7.168-4.20977778 4.20977778-7.39555555 11.15022222-7.168 17.29422222 0.68266667 13.19822222 10.80888889 24.46222222 24.46222222 24.46222222z m0 197.74577778h227.44177778c10.46755555 0 21.04888889 0.11377778 31.51644444 0h0.45511112c6.25777778 0 12.85688889-2.73066667 17.29422222-7.168 4.20977778-4.20977778 7.39555555-11.15022222 7.168-17.29422222-0.56888889-13.19822222-10.69511111-24.46222222-24.46222222-24.46222222H416.42666667c-10.46755555 0-21.04888889-0.11377778-31.51644445 0h-0.45511111c-6.25777778 0-12.85688889 2.73066667-17.29422222 7.168-4.20977778 4.20977778-7.39555555 11.15022222-7.168 17.29422222 0.68266667 13.19822222 10.80888889 24.46222222 24.46222222 24.46222222z m0 187.84711111h227.44177778c10.46755555 0 21.04888889 0.11377778 31.51644444 0h0.45511112c6.25777778 0 12.85688889-2.73066667 17.29422222-7.168 4.20977778-4.20977778 7.39555555-11.15022222 7.168-17.29422222-0.56888889-13.19822222-10.69511111-24.46222222-24.46222222-24.46222223H416.42666667c-10.46755555 0-21.04888889-0.11377778-31.51644445 0h-0.45511111c-6.25777778 0-12.85688889 2.73066667-17.29422222 7.168-4.20977778 4.20977778-7.39555555 11.15022222-7.168 17.29422223 0.68266667 13.19822222 10.80888889 24.46222222 24.46222222 24.46222222z" fill="#2c2c2c" p-id="1736"></path></svg>