<?xml version="1.0" standalone="no"?><!DOCTYPE svg PUBLIC "-//W3C//DTD SVG 1.1//EN" "http://www.w3.org/Graphics/SVG/1.1/DTD/svg11.dtd"><svg t="1578197840659" class="icon" viewBox="0 0 1024 1024" version="1.1" xmlns="http://www.w3.org/2000/svg" p-id="3073" xmlns:xlink="http://www.w3.org/1999/xlink" width="128" height="128"><defs><style type="text/css"></style></defs><path d="M391.97870094 630.16261438C264.60666219 622.36310187 155.71346844 589.96512687 91.99745 544.72795438V631.96250188c0 59.45628375 129.71189344 108.8331975 299.98125094 118.31260593v59.8762575c-127.37203969-7.7995125-236.26523344-40.13749125-299.98125094-85.43466V811.95125281H32.0012V241.98687594C32.0012 126.01412375 220.02944844 32 451.97495187 32s419.97375187 94.01412375 419.97375094 209.98687594v189.46815843h-59.99625V350.22011094C738.45704656 411.17630188 604.72540438 451.97375188 451.97495187 451.97375188s-286.48209469-40.79745-359.97750187-101.75364094V451.97375188c0 59.45628375 129.71189344 108.8331975 299.98125094 118.312605v59.8762575zM451.97495187 991.94000375c-231.94550344 0-419.97375187-80.57496375-419.97375187-179.98875094h59.99625c0 66.29585625 161.14992844 119.9925 359.97750188 119.99250094v59.99625zM451.97495187 391.97750094c198.82757344 0 359.97750094-67.1958 359.97750094-149.990625S650.80252531 91.99625 451.97495187 91.99625 91.99745 159.19205094 91.99745 241.98687594 253.14737844 391.97750094 451.97495187 391.97750094z m522.08736938 393.57540187l-41.75739-24.29848125c2.33985375-12.77920125 3.83976-25.7983875 3.83976-39.29754375a217.18642594 217.18642594 0 0 0-3.83976-39.29754375l41.75739-24.3584775a36.17773875 36.17773875 0 0 0 13.0791825-49.19692593l-35.69776875-62.33610375a35.51778 35.51778 0 0 0-48.77695125-13.199175l-42.23736094 24.5984625a213.58665094 213.58665094 0 0 0-67.0758075-39.597525V487.97150188c0-19.85875875-15.9590025-35.99775-35.69776875-35.99775001h-71.3955375a35.8777575 35.8777575 0 0 0-35.69776875 35.99775v30.5980875a213.58665094 213.58665094 0 0 0-67.07580844 39.597525l-42.23736-24.5984625a35.51778 35.51778 0 0 0-48.77695125 13.199175L456.77465188 609.16392688a36.17773875 36.17773875 0 0 0 13.0791825 49.19692593l41.75739 24.29848125a217.18642594 217.18642594 0 0 0-3.83976 39.29754375c0 13.49915625 1.49990625 26.5183425 3.83976 39.29754375l-41.75739 24.3584775a36.17773875 36.17773875 0 0 0-13.0791825 49.196925l35.69776875 62.33610469a35.51778 35.51778 0 0 0 48.77695125 13.199175l42.23736-24.5984625c19.73876625 16.9189425 42.1173675 30.71808 67.07580843 39.597525v30.5980875c0 19.85875875 15.9590025 35.99775 35.69776875 35.99775h71.3955375a35.8777575 35.8777575 0 0 0 35.69776875-35.99775v-30.5980875a213.58665094 213.58665094 0 0 0 67.0758075-39.597525l42.23736094 24.5984625a35.57777625 35.57777625 0 0 0 48.77695125-13.199175l35.69776875-62.39610094a36.17773875 36.17773875 0 0 0-13.0791825-49.196925z m-44.33722875 35.45778375l-16.4389725 28.01824875a16.61896125 16.61896125 0 0 1-22.49859375 5.8796325l-45.71714344-25.91838a164.98968844 164.98968844 0 0 1-90.17436375 51.23679844v35.57777625c0 8.879445-7.37953875 16.13899125-16.49896875 16.13899125h-32.877945a16.31898 16.31898 0 0 1-16.49896875-16.1989875v-35.51778a164.98968844 164.98968844 0 0 1-90.17436469-51.23679844l-45.7171425 25.91838a16.61896125 16.61896125 0 0 1-22.49859375-5.8796325l-16.4389725-28.01824875a15.9590025 15.9590025 0 0 1 5.999625-22.01862375l45.89713125-26.0383725a157.73014219 157.73014219 0 0 1-8.69945625-50.9968125c0-17.8788825 3.2397975-34.9178175 8.7594525-50.9968125l-45.9571275-26.0383725a15.9590025 15.9590025 0 0 1-5.999625-22.01862468l16.4389725-28.01824875a16.61896125 16.61896125 0 0 1 22.49859375-5.8796325l45.7171425 25.91838a164.98968844 164.98968844 0 0 1 90.17436469-51.2367975v-35.57777625c0-8.93944125 7.37953875-16.13899125 16.49896875-16.13899125h32.877945c9.11943 0 16.49896875 7.19955 16.49896875 16.1989875v35.51778a164.98968844 164.98968844 0 0 1 90.17436375 51.2367975l45.71714344-25.91838a16.61896125 16.61896125 0 0 1 22.49859375 5.8796325l16.4389725 28.01824875a15.9590025 15.9590025 0 0 1-5.999625 22.01862468l-45.89713125 26.0383725c5.3996625 16.078995 8.69945625 33.11793 8.69945625 50.9968125 0 17.8788825-3.2397975 34.9178175-8.69945625 50.9968125l45.89713125 26.0383725a15.9590025 15.9590025 0 0 1 5.999625 22.01862375zM721.95807781 631.96250188a89.994375 89.994375 0 1 0 0 179.98875093 89.994375 89.994375 0 0 0 0-179.98875094z m0 119.99250093a29.998125 29.998125 0 1 1 0-59.99625 29.998125 29.998125 0 0 1 0 59.99625z" fill="#333333" p-id="3074"></path></svg>