<?xml version="1.0" standalone="no"?><!DOCTYPE svg PUBLIC "-//W3C//DTD SVG 1.1//EN" "http://www.w3.org/Graphics/SVG/1.1/DTD/svg11.dtd"><svg t="1581474807804" class="icon" viewBox="0 0 1024 1024" version="1.1" xmlns="http://www.w3.org/2000/svg" p-id="1732" xmlns:xlink="http://www.w3.org/1999/xlink" width="128" height="128"><defs><style type="text/css"></style></defs><path d="M641.45369771 938.29158229V770.90739541h167.38418688L641.45253262 938.29274738z m-453.08852452 26.79694222V58.9103104h647.26965362v647.26965362H641.45253262c-35.7937243 0-64.72626631 28.93254201-64.72626631 64.72626631V965.0896896H188.36517319zM835.63482681-5.81479083H188.36517319c-35.7937243 0-64.72626631 28.93254201-64.72626631 64.72626632V965.0896896c0 35.7937243 28.93254201 64.72626631 64.72626631 64.72626631h426.29274738a64.66801209 64.66801209 0 0 0 45.76102172-18.9640795l45.76218681-45.76218681 129.45253263-129.45369771 45.76335189-45.7621868c12.16814194-12.10406229 18.9640795-28.60981362 18.9640795-45.76218682v-685.19781262c0-35.79488939-28.93254201-64.72743139-64.72626631-64.72743139z m-161.81857849 194.18695453H350.18375168c-17.86423979 0-32.3637157 14.49831083-32.3637157 32.36371569 0 17.86423979 14.49947591 32.36255061 32.3637157 32.36255062H673.81857849c17.86423979 0 32.3637157-14.49831083 32.3637157-32.36255062 0-17.86540487-14.49947591-32.3637157-32.3637157-32.36371569m0 129.45253262H350.18142151c-17.86423979 0-32.3637157 14.49947591-32.3637157 32.36488078 0 17.86423979 14.49947591 32.36255061 32.3637157 32.36255061H673.81857849c17.86423979 0 32.3637157-14.49831083 32.3637157-32.36255061 0-17.86540487-14.49947591-32.3637157-32.3637157-32.36371569M544.3637157 447.27955911H350.18142151c-17.86423979 0-32.3637157 14.49831083-32.3637157 32.3637157 0 17.86423979 14.49947591 32.3637157 32.3637157 32.3637157h194.1811291c17.86423979 0 32.3637157-14.49947591 32.3637157-32.3637157 0-17.86540487-14.49947591-32.3637157-32.3637157-32.3637157" fill="#323233" p-id="1733"></path></svg>