<?xml version="1.0" standalone="no"?><!DOCTYPE svg PUBLIC "-//W3C//DTD SVG 1.1//EN" "http://www.w3.org/Graphics/SVG/1.1/DTD/svg11.dtd"><svg t="1580534672486" class="icon" viewBox="0 0 1024 1024" version="1.1" xmlns="http://www.w3.org/2000/svg" p-id="1463" xmlns:xlink="http://www.w3.org/1999/xlink" width="128" height="128"><defs><style type="text/css"></style></defs><path d="M990.206725 204.594654a37.136968 37.136968 0 0 1-3.89119 4.300789L678.365423 501.622129v484.077642a31.812182 31.812182 0 0 1-8.465044 26.350864 38.229231 38.229231 0 0 1-28.125792 11.946634 38.63883 38.63883 0 0 1-23.756736-8.055445l-267.877686-199.338135-1.36533-1.092264a33.450577 33.450577 0 0 1-13.175431-26.282596V492.884019L37.547932 209.168509a35.635105 35.635105 0 0 1-5.324786-6.21225 116.940488 116.940488 0 0 1-31.743915-79.598721C0.479231 55.295853 60.758537 0 134.827672 0h754.344656c74.069136 0 134.348442 55.295853 134.348441 123.357538 0 30.037253-11.810102 58.709177-33.314044 81.237116zM889.172328 44.509748H134.827672C87.518999 44.509748 48.948435 79.871787 48.948435 123.357538c0 18.84155 7.031448 36.454303 20.275146 50.790264l2.32106 2.52586 1.36533 2.047995 297.641873 283.169378 13.58503 12.970632v309.793307l245.691078 182.817646V483.668044l13.653297-12.970633 307.745313-292.521886 0.682665-0.887464 1.843195-2.047995c13.721563-14.335962 21.299143-32.767913 21.299143-51.882528 0-43.485751-38.570564-78.84779-85.879237-78.84779z m-112.707967 517.186887h218.179685c13.380231 0 24.302869 10.035173 24.302869 22.254874 0 12.287967-10.922638 22.254874-24.302869 22.254874h-218.179685c-13.380231 0-24.302869-9.966907-24.302868-22.254874 0-12.287967 10.922638-22.254874 24.302868-22.254874z m0 146.977742h218.179685c13.380231 0 24.302869 10.035173 24.302869 22.254874 0 12.287967-10.922638 22.254874-24.302869 22.254874h-218.179685c-13.380231 0-24.302869-9.966907-24.302868-22.254874 0-12.219701 10.922638-22.254874 24.302868-22.254874z m0 147.046008h218.179685c13.380231 0 24.302869 10.035173 24.302869 22.254874 0 12.287967-10.922638 22.254874-24.302869 22.254874h-218.179685c-13.380231 0-24.302869-10.035173-24.302868-22.254874 0-12.287967 10.922638-22.254874 24.302868-22.254874z" p-id="1464"></path></svg>