<?xml version="1.0" standalone="no"?><!DOCTYPE svg PUBLIC "-//W3C//DTD SVG 1.1//EN" "http://www.w3.org/Graphics/SVG/1.1/DTD/svg11.dtd"><svg t="1578207110979" class="icon" viewBox="0 0 1024 1024" version="1.1" xmlns="http://www.w3.org/2000/svg" p-id="984" xmlns:xlink="http://www.w3.org/1999/xlink" width="128" height="128"><defs><style type="text/css"></style></defs><path d="M876.8 709.12H738.56V591.36c0-15.36-10.24-25.6-25.6-25.6-15.36 0-25.6 10.24-25.6 25.6v143.36c0 15.36 10.24 25.6 25.6 25.6H876.8c15.36 0 25.6-10.24 25.6-25.6s-12.8-25.6-25.6-25.6zM705.28 463.36c-153.6 0-279.04 125.44-279.04 279.04 0 153.6 125.44 279.04 279.04 279.04 153.6 0 279.04-125.44 279.04-279.04 0-153.6-125.44-276.48-279.04-279.04z m0 506.88c-125.44 0-227.84-102.4-227.84-227.84s102.4-227.84 227.84-227.84 227.84 102.4 227.84 227.84c-2.56 128-102.4 227.84-227.84 227.84z m25.6-622.08c0-15.36-10.24-25.6-25.6-25.6h-473.6c-15.36 0-25.6 10.24-25.6 25.6 0 15.36 10.24 25.6 25.6 25.6h473.6c12.8 0 25.6-10.24 25.6-25.6z m-307.2 207.36c0-15.36-10.24-25.6-25.6-25.6h-166.4c-15.36 0-25.6 10.24-25.6 25.6s10.24 25.6 25.6 25.6h166.4c15.36 0 25.6-12.8 25.6-25.6z m-192 153.6c-15.36 0-25.6 10.24-25.6 25.6s10.24 25.6 25.6 25.6h128c15.36 0 25.6-10.24 25.6-25.6s-10.24-25.6-25.6-25.6h-128zM482.56 972.8H90.88V51.2h174.08v38.4c0 33.28 25.6 64 58.88 64 12.8 0 343.04 2.56 373.76 0 33.28 0 58.88-28.16 56.32-61.44v-38.4H928v437.76c0 15.36 10.24 25.6 25.6 25.6 15.36 0 25.6-10.24 25.6-25.6V28.16c0-15.36-10.24-25.6-25.6-25.6H728.32c-15.36 0-25.6 10.24-25.6 25.6v64c0 7.68-5.12 12.8-10.24 12.8H326.4c-7.68 0-12.8-5.12-12.8-12.8V25.6C313.6 10.24 303.36 0 288 0H65.28c-15.36 0-25.6 10.24-25.6 25.6v972.8c0 15.36 10.24 25.6 25.6 25.6h417.28c15.36 0 25.6-10.24 25.6-25.6 0-15.36-12.8-25.6-25.6-25.6zM395.52 51.2h230.4c15.36 0 25.6-10.24 25.6-25.6 0-15.36-10.24-25.6-25.6-25.6h-230.4c-15.36 0-25.6 10.24-25.6 25.6 0 15.36 12.8 25.6 25.6 25.6z" fill="#333333" p-id="985"></path></svg>