<?xml version="1.0" standalone="no"?><!DOCTYPE svg PUBLIC "-//W3C//DTD SVG 1.1//EN" "http://www.w3.org/Graphics/SVG/1.1/DTD/svg11.dtd"><svg t="1581474812438" class="icon" viewBox="0 0 1024 1024" version="1.1" xmlns="http://www.w3.org/2000/svg" p-id="1864" xmlns:xlink="http://www.w3.org/1999/xlink" width="128" height="128"><defs><style type="text/css"></style></defs><path d="M509.86325333 485.55918222c35.25518222 0 65.30275555-12.41884445 90.14044445-37.25767111 24.83996445-24.83996445 37.25767111-54.88526222 37.25767111-90.14044444 0-35.25518222-12.41884445-65.30275555-37.25767111-90.14044445-24.83996445-24.83996445-54.88526222-37.25767111-90.14044445-37.25767111-35.25518222 0-65.30275555 12.41884445-90.14044444 37.25767111-24.83996445 24.83996445-37.25767111 54.88526222-37.25767111 90.14044445 0 35.25518222 12.41884445 65.30275555 37.25767111 90.14044444 24.83996445 24.83996445 54.88526222 37.25767111 90.14044444 37.25767111v0 0zM509.86325333 0c99.35530667 0 183.88650667 34.85468445 253.59587556 104.56291555s104.56291555 154.24056889 104.56291556 253.59587556c0 49.67765333-12.41884445 106.56654222-37.25767112 170.66666667-24.83996445 64.10126222-54.88526222 124.19413333-90.14044444 180.28202667-35.25518222 56.08903111-70.10872889 108.56903111-104.56291556 157.44682666-34.45418667 48.87665778-63.69962667 87.73632-87.73632 116.5824l-38.45916444 40.86442667c-9.61536-11.21848889-22.43470222-26.04032-38.46030222-44.46890667-16.02446222-18.42858667-44.87054222-55.28689778-86.53596445-110.57265778-41.66542222-55.28689778-78.12209778-108.96952889-109.37116444-161.05130666-31.24906667-52.08177778-59.69237333-110.97315555-85.33333333-176.67640889-25.64096-65.70325333-38.46030222-123.39313778-38.46030223-173.06965333 0-99.35530667 34.85468445-183.88650667 104.56291556-253.59587556 69.70936889-69.70823111 154.24056889-104.56291555 253.59587555-104.56291556v0 0z" fill="#2c2c2c" p-id="1865"></path></svg>