<?xml version="1.0" standalone="no"?><!DOCTYPE svg PUBLIC "-//W3C//DTD SVG 1.1//EN" "http://www.w3.org/Graphics/SVG/1.1/DTD/svg11.dtd"><svg t="1580869070496" class="icon" viewBox="0 0 1119 1024" version="1.1" xmlns="http://www.w3.org/2000/svg" p-id="1443" xmlns:xlink="http://www.w3.org/1999/xlink" width="139.875" height="128"><defs><style type="text/css"></style></defs><path d="M363.65494613 32.07607182c-91.44558137 24.38548821-167.98892032 67.73746802-236.4037632 135.47493604C94.73719865 200.06499214 51.38521998 255.60971605 51.38521998 265.09296071c0 2.03212459 14.22486869-6.09637262 31.83660943-18.96649045C163.15204153 189.90437262 292.53060494 182.45325027 383.29881145 228.51472839c38.61035691 19.64386531 83.99446016 62.99584512 100.92882716 95.5098294 8.12849607 14.90224242 14.22486869 28.44973625 14.22486756 29.80448597 0 2.03212459-14.90224242-4.06424803-33.19135915-13.54749382-18.96649045-8.80587093-56.22209763-23.03073849-83.99446016-30.4818597C254.5976229 275.25358136 135.37968014 336.2173019 112.34894051 447.30674972c-5.41899776 26.4176128-5.41899776 46.06147811 0.67737487 73.15646464C131.31543097 607.8445477 191.60177778 655.26077554 283.72473401 655.26077554c60.96372053 0 82.63971043-7.45112121 218.11464533-75.18858923 114.47631986-57.57684736 125.31431538-61.64109539 174.76266667-65.02796971 42.67460494-3.38687317 52.1578496-2.03212459 52.15785074 6.09637262 0 4.7416229-11.51536925 13.54749383-25.06286308 18.28911673-48.09360157 16.93436701-134.12018631 74.51121437-218.7920202 145.63555556-46.73885298 39.28773177-104.31570034 81.96233557-128.70118968 93.47770481-41.31985522 20.99861504-47.41622784 22.35336477-118.5405679 22.35336477-66.38271829 0-78.5754624-2.03212459-113.12157127-18.28911673-21.6759899-10.16062066-54.86734905-33.86873401-75.18858923-54.86734905l-36.57823232-36.57823232 12.87011898 37.93298205c14.22486869 41.99723008 27.09498653 64.35059485 48.77097642 86.0265836 8.12849607 8.12849607 31.1592357 31.83660942 51.48047588 53.51259933 97.54195399 101.60620203 222.85626823 152.4093019 374.5881964 152.40930304 54.86734905 0 79.25283726-3.38687317 116.50844445-16.25699214 77.89808754-27.09498653 134.79756117-50.80310101 142.24868238-60.96372167 4.06424803-4.7416229 30.48186083-27.77236139 59.60897081-50.80309988 28.44973625-23.03073849 52.1578496-45.38410325 52.15785074-50.12572615 0-4.06424803 12.19274411-21.6759899 27.09498652-38.61035691 15.57961728-16.25699214 29.12711111-37.93298205 31.83661056-47.41622784 2.03212459-9.48324579 12.19274411-35.22348373 23.03073849-57.57684736 10.16062066-22.35336477 21.6759899-52.1578496 25.06286308-66.38271829l6.77374635-25.06286307-17.61174074 13.54749382c-27.77236139 21.6759899-154.44142649 117.86319417-211.34090012 161.21517284-64.35059485 48.77097643-136.15230976 86.02658361-186.27803591 96.18720427-60.28634681 12.19274411-60.28634681 0 0-33.19135915 28.44973625-15.57961728 84.67183502-53.51259933 123.95956565-83.99446016 235.7263872-180.18166443 262.82137486-195.08390685 380.68456904-214.0503973l30.48186083-4.7416229-37.25560718-8.80587093c-32.51398429-7.45112121-43.35197981-7.45112121-79.93021213 2.03212345-79.93021213 20.32124018-146.99030528 61.64109539-306.17335466 186.95541078-128.02381369 101.60620203-203.88977778 136.82968462-294.65798429 136.82968576-48.09360157 0-102.28357575-13.54749383-100.2514523-24.38548936 0.67737486-3.38687317 23.03073849-12.87011897 48.77097643-20.99861504 79.25283726-25.06286307 134.12018631-60.28634681 298.04485859-188.98753422 96.18720427-75.18858923 157.1509248-113.12157127 214.0503973-132.76543658 55.54472391-18.96649045 126.6690651-23.70811335 167.98892032-11.51536925 17.61174187 5.41899776 31.83660942 8.80587093 31.83660942 7.45112121 0-1.35474973-14.90224242-10.16062066-32.51398428-18.96649159-31.1592357-15.57961728-32.51398429-17.61174187-40.64248036-59.60897081-4.7416229-23.03073849-23.70811335-73.15646464-41.99723008-110.41207296-35.90085746-74.51121437-81.28496071-130.05593827-146.99030528-180.18166443-21.6759899-16.25699214-40.64248035-31.83660942-42.6746038-34.54610773-2.03212459-2.70949831-23.70811335-14.22486869-47.41622784-25.06286308C606.83245454 18.52857912 461.87427385 6.33583502 363.65494613 32.07607182z" fill="#2c2c2c" p-id="1444"></path></svg>