<?xml version="1.0" standalone="no"?><!DOCTYPE svg PUBLIC "-//W3C//DTD SVG 1.1//EN" "http://www.w3.org/Graphics/SVG/1.1/DTD/svg11.dtd"><svg t="1578313391431" class="icon" viewBox="0 0 1024 1024" version="1.1" xmlns="http://www.w3.org/2000/svg" p-id="2104" xmlns:xlink="http://www.w3.org/1999/xlink" width="128" height="128"><defs><style type="text/css"></style></defs><path d="M483.40764445 542.14087111c74.15466667-33.83182222 125.82456889-108.37105778 125.82456888-195.15733333 0-118.46883555-96.04892445-214.56782222-214.56782222-214.56782223-118.46883555 0-214.56782222 96.04892445-214.56782222 214.56782223 0 86.80448 51.64145778 161.37557333 125.82456889 195.15733333-160.15701333 39.76647111-279.01838222 184.12657778-279.01838223 356.55907556h30.61646223c0-186.24398222 150.94101333-337.18727111 337.18727111-337.18727112s337.18727111 150.94101333 337.18727111 337.18727112h30.61646222c0-172.48938667-118.87729778-316.80739555-279.01838222-356.55907556zM210.71530667 346.97443555c0-101.59786667 82.33301333-183.96728889 183.96728888-183.96728888s183.96728889 82.33301333 183.9672889 183.96728888c0 101.59786667-82.33301333 183.96728889-183.9672889 183.9672889-101.59786667 0-183.96728889-82.33301333-183.96728888-183.9672889zM716.49507555 438.90688h275.90087112c8.44344889 0 15.31790222-6.83918222 15.31790222-15.31790222s-6.83918222-15.31790222-15.31790222-15.31790223h-275.90087112c-8.44344889 0-15.31790222 6.83918222-15.31790222 15.31790223s6.83918222 15.31790222 15.31790222 15.31790222zM992.36522667 561.54339555h-214.56782222c-8.44344889 0-15.31790222 6.83918222-15.31790223 15.31790223 0 8.44344889 6.83918222 15.31790222 15.31790223 15.31790222h214.56782222c8.44344889 0 15.31790222-6.83918222 15.31790222-15.31790222s-6.83918222-15.31790222-15.31790222-15.31790223zM992.36522667 714.78272h-122.66040889c-8.44344889 0-15.31790222 6.83918222-15.31790223 15.31790222 0 8.44344889 6.83918222 15.31790222 15.31790223 15.31790223h122.66040889c8.44344889 0 15.31790222-6.83918222 15.31790222-15.31790223s-6.83918222-15.31790222-15.31790222-15.31790222z" p-id="2105"></path></svg>