<?xml version="1.0" standalone="no"?><!DOCTYPE svg PUBLIC "-//W3C//DTD SVG 1.1//EN" "http://www.w3.org/Graphics/SVG/1.1/DTD/svg11.dtd"><svg t="1580700017533" class="icon" viewBox="0 0 1024 1024" version="1.1" xmlns="http://www.w3.org/2000/svg" p-id="1373" xmlns:xlink="http://www.w3.org/1999/xlink" width="128" height="128"><defs><style type="text/css"></style></defs><path d="M865.745455 1024H158.254545C97.745455 1024 46.545455 972.8 46.545455 912.290909V111.709091C46.545455 51.2 97.745455 0 158.254545 0h702.836364C926.254545 0 977.454545 51.2 977.454545 111.709091v800.581818c0 60.509091-51.2 111.709091-111.70909 111.709091zM158.254545 60.509091c-27.927273 0-51.2 23.272727-51.2 46.545454v800.581819c0 27.927273 23.272727 46.545455 51.2 46.545454h702.836364c27.927273 0 51.2-23.272727 51.2-46.545454V111.709091c0-27.927273-23.272727-46.545455-51.2-46.545455L158.254545 60.509091z m125.672728 246.690909H223.418182V246.690909h60.509091v60.509091z m0 172.218182H223.418182v60.509091h60.509091v-60.509091z m0 237.381818H223.418182v60.509091h60.509091v-60.509091z m516.654545-409.6h-465.454545V246.690909h465.454545v60.509091z m0 172.218182h-465.454545v60.509091h465.454545v-60.509091z m0 237.381818h-465.454545v60.509091h465.454545v-60.509091z" fill="#2c2c2c" p-id="1374"></path></svg>