<?xml version="1.0" standalone="no"?><!DOCTYPE svg PUBLIC "-//W3C//DTD SVG 1.1//EN" "http://www.w3.org/Graphics/SVG/1.1/DTD/svg11.dtd"><svg t="1580700023304" class="icon" viewBox="0 0 1024 1024" version="1.1" xmlns="http://www.w3.org/2000/svg" p-id="1495" xmlns:xlink="http://www.w3.org/1999/xlink" width="128" height="128"><defs><style type="text/css"></style></defs><path d="M45.40512 731.328h19.456c16.064 0 29.088 15.776 29.088 35.328v223.424H92.31712a30.08 30.08 0 0 1-27.36 23.648h-19.552a29.952 29.952 0 0 1-27.104-23.36l-0.032-0.192H16.31712v-223.552a32.64 32.64 0 0 1 28.928-35.328h0.16zM355.48512 542.72h19.456c16.064 0 29.088 15.776 29.088 35.328v412.064h-1.952a30.112 30.112 0 0 1-27.04 23.648h-19.552a29.984 29.984 0 0 1-27.616-23.456l-0.032-0.192h-1.952V578.464c0.512-19.456 13.632-35.744 29.6-35.744zM665.75712 660.8h19.456c16.064 0 29.088 15.776 29.088 35.328v293.984h-1.952a30.08 30.08 0 0 1-27.264 23.648h-19.36a29.952 29.952 0 0 1-27.104-23.36l-0.032-0.192h-1.952V696.32c-0.192-19.776 12.8-35.52 29.088-35.52zM975.61312 496.032h19.456c13.408 0.96 24.288 10.656 27.104 23.36l0.032 0.192H1024.15712v458.752c0 19.552-12.992 35.328-29.088 35.328h-19.456c-16.064 0-29.088-15.776-29.088-35.328V519.584h1.952a29.984 29.984 0 0 1 27.04-23.552h0.096zM1024.15712 10.24l-210.016 22.944 69.12 69.216-227.744 278.336-236.448-218.432c-7.552-6.88-17.632-11.104-28.736-11.104s-21.184 4.224-28.768 11.136l0.032-0.032L14.14112 475.648a42.592 42.592 0 0 0 28.512 74.24h0.736c10.944 0 20.928-4.16 28.448-10.976l-0.032 0.032 318.048-287.648 240.96 222.912a42.56 42.56 0 0 0 61.408-4.256l0.064-0.064 251.072-307.2 57.44 57.44z" fill="#2c2c2c" p-id="1496"></path></svg>