<?xml version="1.0" standalone="no"?><!DOCTYPE svg PUBLIC "-//W3C//DTD SVG 1.1//EN" "http://www.w3.org/Graphics/SVG/1.1/DTD/svg11.dtd"><svg t="1578313844979" class="icon" viewBox="0 0 1024 1024" version="1.1" xmlns="http://www.w3.org/2000/svg" p-id="1229" xmlns:xlink="http://www.w3.org/1999/xlink" width="128" height="128"><defs><style type="text/css"></style></defs><path d="M520.173739 101.008702V7.079388a7.079388 7.079388 0 0 0-10.619082-6.116591l-206.434942 119.188569a7.079388 7.079388 0 0 0 0 12.233182l206.434942 119.216887a7.079388 7.079388 0 0 0 10.619082-6.144909V147.562755a414.738842 414.738842 0 1 1-423.347378 414.483984 7.079388 7.079388 0 0 0-7.079388-7.079387H57.380013a7.079388 7.079388 0 0 0-7.079387 7.079387A461.491118 461.491118 0 1 0 520.173739 101.008702z" p-id="1230" fill="#2c2c2c"></path><path d="M487.410333 370.138701h-27.354754a7.079388 7.079388 0 0 0-7.079387 7.079387v202.980201a7.136023 7.136023 0 0 0 2.095498 5.068842l175.568813 173.133503a7.079388 7.079388 0 0 0 9.996095-0.084953l19.199299-19.482475a7.079388 7.079388 0 0 0-0.056635-10.024413l-165.289541-162.995819v-188.594886a7.079388 7.079388 0 0 0-7.079388-7.079387z" p-id="1231" fill="#2c2c2c"></path></svg>