<?xml version="1.0" standalone="no"?><!DOCTYPE svg PUBLIC "-//W3C//DTD SVG 1.1//EN" "http://www.w3.org/Graphics/SVG/1.1/DTD/svg11.dtd"><svg t="1578207515128" class="icon" viewBox="0 0 1024 1024" version="1.1" xmlns="http://www.w3.org/2000/svg" p-id="1294" xmlns:xlink="http://www.w3.org/1999/xlink" width="128" height="128"><defs><style type="text/css"></style></defs><path d="M205.18475137 479.82407674c-1.60879617 11.26157314-1.60879617 20.91435011-1.60879617 32.17592326h-96.52776979c0-11.26157314 0-20.91435011 1.60879616-32.17592326h96.5277698z m376.45830218-193.05553958h-48.26388489c-12.87036929 0-24.13194244 11.26157314-24.13194245 24.13194246v210.75229737c0 6.43518466 3.21759233 12.87036929 6.43518467 17.69675778l135.1388777 135.13887772c9.65277699 9.65277699 24.13194244 9.65277699 33.78471941 0L718.39072743 640.70369303c9.65277699-9.65277699 9.65277699-24.13194244 0-33.78471941l-112.61573143-114.22452757V310.90047962c0-12.87036929-11.26157314-24.13194244-24.13194245-24.13194246zM557.5111111 61.5370743c-238.10183216 0-432.76616788 185.01155876-448.85412953 418.28700244 0 4.82638849-1.60879617 11.26157314-1.60879616 16.08796163h-72.39582735c-20.91435011 0-32.17592326 24.13194244-19.30555394 38.61110791l120.65971222 146.40045086c9.65277699 11.26157314 27.34953477 11.26157314 37.00231178 0l120.65971222-146.40045086c12.87036929-16.08796163 1.60879617-38.61110791-19.30555395-38.61110791H203.5759552v-16.08796163c16.08796163-180.18517028 168.92359714-321.75923265 352.32635973-321.75923264 209.14350122 0 374.84950602 181.79396643 352.32635975 394.15505997-16.08796163 152.8356355-160.87961633 297.62729018-315.32404798 312.10645566-114.22452758 11.26157314-222.01387052-30.5671271-297.62729021-112.61573141-9.65277699-11.26157314-22.52314628-17.69675779-35.39351556-1.60879616l-38.61110794 46.65508871c-8.04398081 9.65277699-1.60879617 16.08796163 6.43518466 24.13194246 86.87499281 91.70138129 205.92590889 143.18285852 334.62960194 141.57406237 231.66664751-3.21759233 426.33098325-186.62035492 442.41894487-418.28700244C1025.67079458 281.94214867 816.52729337 61.5370743 557.5111111 61.5370743z" p-id="1295"></path></svg>