<svg height="128" viewBox="0 0 1024 1024" width="128" xmlns="http://www.w3.org/2000/svg"><g fill="#2c2c2c"><path d="m818.676456 874.960463c10.233456 10.233456 20.466911 20.466911 35.817095 30.700367l56.284007 56.284006c20.466911 20.466911 10.233456 51.167279-15.350184 56.284007-15.350184 5.116728-25.583639 0-35.817095-10.233456l-92.101101-92.101101-5.116728-5.116728c-173.968747 97.217829-342.820766 97.217829-511.672785 0 5.116728 10.233456 5.116728 10.233456 0 10.233455l-92.101102 92.101102c-20.466911 20.466911-51.167279 10.233456-56.284006-15.350184 0-10.233456 0-25.583639 10.233456-35.817095l81.867645-81.867645 5.116728-5.116728c-112.568013-102.334557-173.968747-230.252754-168.852019-378.637861 5.116728-133.034924 56.284006-245.602937 153.501836-337.704039 189.318931-173.968747 486.089146-163.735291 665.174621 25.58364 194.435658 194.435658 184.202203 511.672785-30.700368 690.75826zm-716.341899-363.287678c0 225.136026 184.202203 409.338228 409.338228 409.338228s409.338228-184.202203 409.338228-409.338228-184.202203-409.338228-409.338228-409.338228-409.338228 184.202203-409.338228 409.338228zm97.217829-511.672785c5.116728 0 10.233456 0 20.466912 5.116728 15.350184 5.116728 25.583639 20.466911 20.466911 35.817095s-15.350184 25.583639-35.817095 25.583639c-30.700367 0-56.284006 10.233456-81.867646 25.583639-35.817095 30.700367-51.167279 66.517462-56.284006 112.568013 0 15.350184-5.116728 25.583639-20.466911 30.700367-10.233456 5.116728-20.466911 5.116728-30.700367-5.116728-10.233456-5.116727-15.350184-15.350183-15.350184-25.583639 0-71.63419 30.700367-127.918196 92.101101-168.852019 30.700367-25.583639 66.517462-35.817095 107.451285-35.817095zm823.793185 199.552386c0 5.116728 0 15.350184-5.116728 20.466912-10.233456 10.233456-25.583639 15.350184-35.817095 15.350183-15.350184-5.116728-25.583639-15.350184-25.58364-30.700367 0-25.583639-5.116728-51.167279-20.466911-71.63419-30.700367-40.933823-66.517462-61.400734-117.684741-66.517462-25.583639 0-40.933823-20.466911-30.700367-46.050551 5.116728-10.233456 15.350184-20.466911 30.700367-20.466911 76.750918 0 133.034924 35.817095 173.968747 102.334557 20.466911 30.700367 30.700367 61.400734 30.700368 97.217829zm0 0"/><path d="m475.85569 409.338228v-102.334557c0-15.350184 10.233456-25.583639 20.466912-30.700367 15.350184-5.116728 30.700367 0 35.817095 10.233456 5.116728 5.116728 10.233456 15.350184 10.233455 25.583639v179.085475c0 5.116728 0 10.233456 5.116728 10.233456l117.684741 117.68474c15.350184 15.350184 15.350184 35.817095 0 51.167279-15.350184 10.233456-30.700367 10.233456-46.050551 0l-25.583639-25.58364-107.451285-107.451284c-10.233456-10.233456-15.350184-20.466911-15.350184-35.817095 5.116728-25.583639 5.116728-61.400734 5.116728-92.101102zm0 0"/></g></svg>