<?xml version="1.0" standalone="no"?><!DOCTYPE svg PUBLIC "-//W3C//DTD SVG 1.1//EN" "http://www.w3.org/Graphics/SVG/1.1/DTD/svg11.dtd"><svg t="1578207148662" class="icon" viewBox="0 0 1024 1024" version="1.1" xmlns="http://www.w3.org/2000/svg" p-id="857" xmlns:xlink="http://www.w3.org/1999/xlink" width="128" height="128"><defs><style type="text/css"></style></defs><path d="M512.138035 0.002458a506.463715 506.463715 0 0 0-222.614661 50.789729 25.599662 25.599662 0 1 0 22.322905 46.079392A456.288377 456.288377 0 0 1 512.138035 51.201782 460.58912 460.58912 0 1 1 111.144928 284.875497a25.599662 25.599662 0 0 0-44.64581-25.190067A511.993242 511.993242 0 1 0 512.138035 0.002458z" p-id="858"></path><path d="M183.643171 161.382727m-51.199324 0a51.199324 51.199324 0 1 0 102.398649 0 51.199324 51.199324 0 1 0-102.398649 0Z" p-id="859"></path><path d="M661.844859 266.238943a25.394865 25.394865 0 0 0-11.673446-34.201148 312.315877 312.315877 0 1 0-172.439324 590.635403 329.51885 329.51885 0 0 0 34.610744 1.843176 312.520675 312.520675 0 0 0 308.424728-361.057634 25.599662 25.599662 0 0 0-50.584932 7.5775 260.706959 260.706959 0 1 1-143.358108-193.738243 25.394865 25.394865 0 0 0 35.020338-11.059054z" p-id="860"></path><path d="M733.319116 393.213267a51.199324 51.199324 0 1 0-45.260203-56.524054 51.199324 51.199324 0 0 0 45.260203 56.524054z" p-id="861"></path><path d="M512.138035 511.995699m-51.199324 0a51.199324 51.199324 0 1 0 102.398648 0 51.199324 51.199324 0 1 0-102.398648 0Z" p-id="862"></path></svg>