<?xml version="1.0" standalone="no"?><!DOCTYPE svg PUBLIC "-//W3C//DTD SVG 1.1//EN" "http://www.w3.org/Graphics/SVG/1.1/DTD/svg11.dtd"><svg t="1578313349461" class="icon" viewBox="0 0 1024 1024" version="1.1" xmlns="http://www.w3.org/2000/svg" p-id="1198" xmlns:xlink="http://www.w3.org/1999/xlink" width="128" height="128"><defs><style type="text/css"></style></defs><path d="M994.8968416 353.90877227C925.91157867 146.9529824 730.45333333 6.1080704 512 6.1080704c-172.4631584 0-330.55438613 86.23157867-425.4091232 229.9508768l-28.7438592-11.49754347c-2.87438613-2.87438613-5.74877227-2.87438613-8.6231584-2.87438613H40.60070187s-2.87438613 0-2.87438614 2.87438613l-2.87438613 2.87438614-2.87438613 2.87438506s0 2.87438613-2.87438507 2.87438614v5.74877226l8.62315733 204.08140374v5.7487712c0 2.87438613 2.87438613 2.87438613 5.74877227 5.74877226h2.87438613c2.87438613 0 5.74877227 2.87438613 8.62315734 2.87438614 2.87438613 0 5.74877227 0 8.6231584-2.87438614l189.70947306-114.97543893c2.87438613-2.87438613 5.74877227-5.74877227 5.74877227-8.62315733v-2.87438614-2.87438613-2.87438613-2.87438507-2.87438613-2.87438614l-2.87438613-2.87438613-2.87438614-2.87438613-34.49263146-17.24631574c68.98526293-91.98035093 175.33754347-143.71929813 290.3129824-143.71929813 28.7438592 0 60.3621056 2.87438613 89.1059648 11.49754347 11.49754347 2.87438613 22.995088-2.87438613 22.995088-14.3719296 2.87438613-11.49754347-2.87438613-22.995088-14.3719296-22.995088-28.7438592-5.74877227-60.3621056-11.49754347-94.85473707-11.49754347-135.0961408 0-261.5691232 66.1108768-336.3031584 181.08631573v14.3719296s0 2.87438613 2.87438613 2.87438614l2.87438614 2.87438613s0 2.87438613 2.87438613 2.87438613l22.995088 11.49754347-129.34736853 77.60842133-5.74877227-135.0961408 14.3719296 14.37193067H95.2140352c2.87438613 0 5.74877227 0 8.62315733-2.87438613h2.87438614c2.87438613-2.87438613 5.74877227-2.87438613 5.74877226-5.74877227 86.23157867-140.844912 235.69964907-227.07649173 402.4140352-227.07649067 201.2070176 0 379.4189472 129.34736853 445.529824 319.0568416 2.87438613 8.6231584 11.49754347 14.3719296 20.12070187 14.3719296h5.74877227c5.74877227-5.74877227 11.49754347-14.3719296 8.62315733-25.86947306zM977.65052587 586.7340352v-5.74877227c0-2.87438613 0-2.87438613-2.87438507-2.87438613 0-2.87438613-2.87438613-2.87438613-5.74877227-5.7487712-2.87438613 0-2.87438613-2.87438613-5.74877226-2.87438613h-2.87438614-2.87438506-2.87438614-2.87438613s-2.87438613 0-2.87438613 2.87438613h-2.87438614l-181.08631573 126.4729824s0 2.87438613-2.87438613 2.87438613l-2.87438614 2.87438507s0 2.87438613-2.87438506 2.87438613v14.3719296c0 2.87438613 0 2.87438613 2.87438506 5.74877227 0 2.87438613 2.87438613 2.87438613 2.87438614 5.74877227l25.86947413 17.24631573c-68.98526293 83.35719253-172.4631584 132.22175467-281.68982507 132.22175467-34.49263147 0-68.98526293-5.74877227-100.60350826-14.37193067-11.49754347-2.87438613-22.995088 2.87438613-25.86947414 14.37193067-2.87438613 11.49754347 2.87438613 22.995088 14.3719296 25.86947306 37.3670176 11.49754347 74.7340352 17.24631573 112.1010528 17.24631574 129.34736853 0 250.07157867-60.3621056 327.68-163.84v-2.87438614s0-2.87438613 2.87438614-2.87438506v-2.87438614-2.87438613-2.87438613-2.87438614l-2.87438614-2.87438613-2.87438613-2.87438507-17.24631573-25.86947413 126.4729824-89.1059648 5.74877226 146.59368427-14.3719296-8.6231584h-2.87438613-2.87438613-2.87438614-2.87438506-2.87438614s-2.87438613 0-2.87438613 2.87438613l-2.87438613 2.87438613s-2.87438613 0-2.87438614 2.87438614c-86.23157867 132.22175467-232.82526293 212.70456107-390.91649066 212.70456106-192.5838592 0-367.92140373-120.72421013-436.90666667-301.81052586-2.87438613-11.49754347-14.3719296-14.3719296-25.86947413-11.49754454s-14.3719296 14.3719296-11.49754347 25.86947414c74.7340352 195.45824533 264.44350827 327.68 474.27368427 327.68 166.71438613 0 319.0568416-80.48280747 413.91157866-215.5789472l28.7438592 17.24631573c2.87438613 0 5.74877227 2.87438613 8.6231584 2.87438613 2.87438613 0 5.74877227 0 8.62315734-2.87438613h2.87438613l5.74877227-5.74877227v-2.87438613-2.87438613l-8.6231584-227.07649067z" fill="#2c2c2c" p-id="1199"></path><path d="M385.5270176 405.64771947l-31.61824533-22.995088h-2.87438614s-2.87438613 0-2.87438613-2.87438614h-2.87438613-37.3670176c-11.49754347 0-20.12070187 8.6231584-20.12070187 20.12070187s8.6231584 20.12070187 20.12070187 20.12070187h25.86947413l8.62315733 5.74877226-31.61824533 37.3670176v2.87438614l-2.87438613 2.87438506V601.1059648c0 11.49754347 8.6231584 20.12070187 20.12070186 20.12070187h2.87438614v31.61824533c0 11.49754347 8.6231584 20.12070187 20.12070186 20.12070187h97.72912214c11.49754347 0 20.12070187-8.6231584 20.12070186-20.12070187v-31.61824533h135.0961408v31.61824533c0 11.49754347 8.6231584 20.12070187 20.12070187 20.12070187h97.72912213c11.49754347 0 20.12070187-8.6231584 20.12070187-20.12070187v-31.61824533c11.49754347 0 20.12070187-8.6231584 20.12070187-20.12070187v-126.4729824-2.87438613-2.87438614s0-2.87438613-2.87438614-2.87438506v-2.87438614l-34.49263146-40.24140373 2.87438613-2.87438613h25.86947413c11.49754347 0 20.12070187-8.6231584 20.12070187-20.12070187s-8.6231584-20.12070187-20.12070187-20.12070187h-31.6182464-2.87438506-2.87438614s-2.87438613 0-2.87438613 2.87438614h-2.87438613l-57.48771947 48.86456106H420.01964907l-34.49263147-25.86947306z m43.11578987 227.07649066h-57.48771947v-11.49754346h57.48771947v11.49754346z m270.19228053 0h-57.48771947v-11.49754346h57.48771947v11.49754346z m22.99508693-149.46806933v97.72912213h-373.67017493V483.2561408l28.7438592-34.49263253 25.86947413 20.12070186H658.59368427c2.87438613 0 5.74877227 0 8.62315733-2.87438506 0 0 2.87438613 0 2.87438613-2.87438614 0 0 2.87438613 0 2.87438614-2.87438613l22.995088-20.12070187 25.86947306 43.11578987z" fill="#2c2c2c" p-id="1200"></path><path d="M448.76350827 506.25122773h-68.98526294c-11.49754347 0-20.12070187 8.6231584-20.12070186 20.12070187s8.6231584 20.12070187 20.12070186 20.12070187h68.98526294c11.49754347 0 20.12070187-8.6231584 20.12070186-20.12070187s-8.6231584-20.12070187-20.12070186-20.12070187zM658.59368427 382.65263147c11.49754347 0 20.12070187-8.6231584 20.12070186-20.12070187V310.7929824c0-11.49754347-8.6231584-20.12070187-20.12070186-20.12070187h-244.32280747c-11.49754347 0-20.12070187 8.6231584-20.12070187 20.12070187v51.7389472c0 11.49754347 8.6231584 20.12070187 20.12070187 20.12070187s20.12070187-8.6231584 20.12070187-20.12070187v-31.61824533H638.4729824v31.61824533c0 11.49754347 8.6231584 20.12070187 20.12070187 20.12070187zM603.98035093 526.3719296c0 11.49754347 8.6231584 20.12070187 20.12070187 20.12070187h68.98526293c11.49754347 0 20.12070187-8.6231584 20.12070187-20.12070187s-8.6231584-20.12070187-20.12070187-20.12070187h-68.98526293c-11.49754347 0-20.12070187 8.6231584-20.12070187 20.12070187z" fill="#2c2c2c" p-id="1201"></path></svg>