<?xml version="1.0" standalone="no"?><!DOCTYPE svg PUBLIC "-//W3C//DTD SVG 1.1//EN" "http://www.w3.org/Graphics/SVG/1.1/DTD/svg11.dtd"><svg t="1578313360827" class="icon" viewBox="0 0 1024 1024" version="1.1" xmlns="http://www.w3.org/2000/svg" p-id="1359" xmlns:xlink="http://www.w3.org/1999/xlink" width="128" height="128"><defs><style type="text/css"></style></defs><path d="M820.45155555 937.07377778c-76.45866667 0-139.03644445-62.57777778-139.03644444-139.03644445s62.57777778-139.03644445 139.03644444-139.03644444 139.03644445 62.57777778 139.03644445 139.03644444c0.11377778 76.34488889-62.464 139.03644445-139.03644445 139.03644445z m0-228.57955556c-49.152 0-89.42933333 40.27733333-89.42933333 89.42933333 0 49.152 40.27733333 89.42933333 89.42933333 89.42933334s89.42933333-40.27733333 89.42933334-89.42933334c0-49.152-40.27733333-89.42933333-89.42933334-89.42933333z m0 0" fill="#2c2c2c" p-id="1360"></path><path d="M817.49333333 688.69688889c-13.88088889 0-24.80355555-10.92266667-24.80355555-24.80355556v-39.70844444c0-13.88088889 10.92266667-24.80355555 24.80355555-24.80355556 13.88088889 0 24.80355555 10.92266667 24.80355556 24.80355556v39.70844444c0 13.88088889-10.92266667 24.80355555-24.80355556 24.80355556zM726.12977778 729.88444445c-6.48533333 0-12.85688889-2.50311111-17.86311111-7.39555556l-28.78577778-29.80977778c-9.44355555-9.89866667-9.44355555-25.82755555 0.45511111-35.27111111 9.89866667-9.44355555 25.82755555-9.44355555 35.27111111 0.45511111l28.78577778 29.80977778c9.44355555 9.89866667 9.44355555 25.82755555-0.45511111 35.27111111-5.00622222 4.43733333-10.92266667 6.94044445-17.408 6.94044445zM688.35555555 822.72711111h-39.70844444c-13.88088889 0-24.80355555-10.92266667-24.80355556-24.80355556 0-13.88088889 10.92266667-24.80355555 24.80355556-24.80355555H688.35555555c13.88088889 0 24.80355555 10.92266667 24.80355556 24.80355555 0 13.88088889-10.92266667 24.80355555-24.80355556 24.80355556zM698.82311111 945.94844445c-6.48533333 0-12.85688889-2.50311111-17.408-7.39555556-9.89866667-9.89866667-9.89866667-25.37244445 0-35.27111111l29.35466667-29.35466667c9.89866667-9.89866667 25.37244445-9.89866667 35.27111111 0s9.89866667 25.37244445 0 35.27111111l-29.35466667 29.35466667c-5.00622222 4.89244445-11.49155555 7.39555555-17.86311111 7.39555556zM822.49955555 996.57955555c-13.88088889 0-24.80355555-10.92266667-24.80355555-24.80355555v-44.71466667c0-13.88088889 10.92266667-24.80355555 24.80355555-24.80355555 13.88088889 0 24.80355555 10.92266667 24.80355556 24.80355555v44.71466667c0 13.88088889-10.92266667 24.80355555-24.80355556 24.80355555zM944.128 944.92444445c-6.48533333 0-12.97066667-2.50311111-17.408-7.39555556l-29.35466667-29.35466667c-9.89866667-9.89866667-9.89866667-25.37244445 0-35.27111111s25.37244445-9.89866667 35.27111112 0l29.35466666 29.35466667c9.89866667 9.89866667 9.89866667 25.37244445 0 35.27111111-4.89244445 5.00622222-11.37777778 7.39555555-17.86311111 7.39555556zM996.352 822.72711111h-44.71466667c-13.88088889 0-24.80355555-10.92266667-24.80355555-24.80355556 0-13.88088889 10.92266667-24.80355555 24.80355555-24.80355555h44.71466667c13.88088889 0 24.80355555 10.92266667 24.80355555 24.80355555 0 13.88088889-10.92266667 24.80355555-24.80355555 24.80355556zM913.408 728.86044445c-6.48533333 0-12.85688889-2.50311111-17.408-7.39555556-9.89866667-9.89866667-9.89866667-25.37244445 0-35.27111111l29.35466667-29.35466667c9.89866667-9.89866667 25.37244445-9.89866667 35.27111111 0s9.89866667 25.37244445 0 35.27111111l-29.35466667 29.35466667c-5.00622222 5.00622222-11.49155555 7.39555555-17.86311111 7.39555556zM847.872 372.16711111H111.95733333c-60.30222222 0-109.11288889-48.92444445-109.11288888-109.11288889V136.53333333c0-60.30222222 48.92444445-109.11288889 109.11288888-109.11288888h735.91466667c60.30222222 0 109.11288889 48.92444445 109.11288889 109.11288888v126.976c-0.45511111 60.18844445-49.26577778 108.65777778-109.11288889 108.65777778zM111.95733333 76.8c-33.10933333 0-59.73333333 26.624-59.73333333 59.73333333v126.40711112c0 33.10933333 26.624 59.73333333 59.73333333 59.73333333h735.91466667c32.65422222 0 59.27822222-26.624 59.73333333-59.73333333V136.53333333c0-33.10933333-26.624-59.73333333-59.73333333-59.73333333H111.95733333z m0 0" fill="#2c2c2c" p-id="1361"></path><path d="M640 202.18311111c0 36.52266667 29.58222222 66.21866667 66.21866667 66.21866667 36.52266667 0 66.21866667-29.58222222 66.21866666-66.21866667 0-36.52266667-29.58222222-66.21866667-66.21866666-66.21866666-36.63644445 0.11377778-66.21866667 29.696-66.21866667 66.21866666z m0 0M640 499.59822222c0 36.52266667 29.58222222 66.21866667 66.21866667 66.21866667 36.52266667 0 66.21866667-29.58222222 66.21866666-66.21866667 0-36.52266667-29.58222222-66.21866667-66.21866666-66.21866667s-66.21866667 29.58222222-66.21866667 66.21866667z m0 0" fill="#2c2c2c" p-id="1362"></path><path d="M594.14755555 619.52H111.95733333c-33.10933333 0-59.73333333-26.624-59.73333333-59.73333333V433.83466667c0-33.10933333 26.624-59.73333333 59.73333333-59.73333334h735.91466667c33.10933333 0 59.73333333 26.624 59.73333333 59.73333334v42.78044444c16.95288889 2.73066667 33.45066667 6.59911111 49.37955556 11.94666667v-54.72711111c0-60.30222222-48.92444445-109.11288889-109.11288889-109.11288889H111.95733333c-60.30222222 0-109.11288889 48.92444445-109.11288888 109.11288889V559.78666667c0 60.30222222 48.92444445 109.11288889 109.11288888 109.11288888h457.15911112c6.94044445-17.29422222 15.36-33.67822222 25.0311111-49.37955555z" fill="#2c2c2c" p-id="1363"></path><path d="M576.512 914.88711111H111.95733333c-33.10933333 0-59.73333333-26.624-59.73333333-59.73333333V729.20177778c0-33.10933333 26.624-59.73333333 59.73333333-59.73333333h457.04533334c6.82666667-17.29422222 15.24622222-33.792 24.91733333-49.37955556H111.95733333c-60.30222222 0-109.11288889 48.92444445-109.11288888 109.11288889v125.952c0 60.30222222 48.92444445 109.11288889 109.11288888 109.11288889H605.29777778c-11.03644445-15.47377778-20.70755555-31.97155555-28.78577778-49.37955556z" fill="#2c2c2c" p-id="1364"></path></svg>