<?xml version="1.0" standalone="no"?><!DOCTYPE svg PUBLIC "-//W3C//DTD SVG 1.1//EN" "http://www.w3.org/Graphics/SVG/1.1/DTD/svg11.dtd"><svg t="1578313365094" class="icon" viewBox="0 0 1024 1024" version="1.1" xmlns="http://www.w3.org/2000/svg" p-id="1485" xmlns:xlink="http://www.w3.org/1999/xlink" width="128" height="128"><defs><style type="text/css"></style></defs><path d="M915.778868 1024H108.221132a99.412114 99.412114 0 0 1-99.412114-99.412114v-492.642252a99.412114 99.412114 0 0 1 99.412114-99.412114h807.557736a99.412114 99.412114 0 0 1 99.412114 99.412114v492.642252a99.412114 99.412114 0 0 1-99.412114 99.412114zM108.221132 398.808263a33.137371 33.137371 0 0 0-33.137372 33.137371v492.642252a33.137371 33.137371 0 0 0 33.137372 33.137372h807.557736a33.137371 33.137371 0 0 0 33.137372-33.137372v-492.642252a33.137371 33.137371 0 0 0-33.137372-33.137371z" p-id="1486"></path><path d="M192.555741 398.808263a33.137371 33.137371 0 0 1-28.277223-50.313576L354.155655 35.125614a33.137371 33.137371 0 0 1 51.749528-6.240872l90.685939 90.63071a33.137371 33.137371 0 1 1-46.834151 46.889381l-60.751847-60.751848L220.888194 382.847096a33.137371 33.137371 0 0 1-28.332453 15.961167z" p-id="1487"></path><path d="M290.034842 398.808263A33.137371 33.137371 0 0 1 266.617766 342.419503l332.53352-332.699207a33.137371 33.137371 0 0 1 46.834152 0L892.472251 255.986193a33.137371 33.137371 0 0 1 0 46.88938l-70.030312 69.864624a33.137371 33.137371 0 1 1-46.88938-46.88938l46.447549-46.447549-199.431746-199.376516-309.282131 309.282131a33.137371 33.137371 0 0 1-23.251389 9.49938zM733.136724 775.911547A126.363842 126.363842 0 1 1 859.334879 649.547705a126.4743 126.4743 0 0 1-126.198155 126.363842z m0-186.397713A60.0891 60.0891 0 1 0 793.060137 649.547705a60.144329 60.144329 0 0 0-59.923413-60.033871z" p-id="1488"></path></svg>