<svg height="128" viewBox="0 0 1024 1024" width="128" xmlns="http://www.w3.org/2000/svg"><g fill="#2c2c2c"><path d="m995.456 462.912h-17.92a554.432 554.432 0 0 0 -34.432-147.968 518.4 518.4 0 0 0 -100.352-163.776 466.944 466.944 0 0 0 -148.672-110.4 428.16 428.16 0 0 0 -182.208-40.512c-63.168 0-124.416 13.568-182.144 40.512a466.176 466.176 0 0 0 -148.8 110.4 513.536 513.536 0 0 0 -85.12 128.192l-27.52-29.696-44.544 67.456 47.232 25.152a554.88 554.88 0 0 0 -11.456 40.32h-44.16l10.688 79.552 21.056-7.936c-.384 2.88-.64 5.76-.96 8.704h-17.6c-15.744 0-28.544 14.08-28.544 31.424v98.112c0 17.344 12.8 31.424 28.544 31.424h34.304c15.68 0 28.608-14.08 28.608-31.36v-98.24a32.64 32.64 0 0 0 -9.408-23.168c.896-10.56 2.048-21.12 3.648-31.552l35.456-13.312a477.696 477.696 0 0 0 -4.928 147.008l4.224 7.424a456.32 456.32 0 0 0 159.424 166.208 403.456 403.456 0 0 0 165.12 56.064 36.032 36.032 0 0 1 30.464-18.112h73.216c20.096 0 36.608 18.112 36.608 40.32v.064c0 22.144-16.512 40.256-36.608 40.256h-73.152a36.352 36.352 0 0 1 -32.64-22.144 437.12 437.12 0 0 1 -180.48-60.992 481.792 481.792 0 0 1 -121.6-105.6c56.192 155.776 191.36 267.52 351.296 275.2l-28.352 71.872 221.952-116.8c130.56-71.488 220.544-219.776 220.544-391.232 0-241.152-177.6-436.608-396.672-436.608-160.96 0-299.456 105.6-361.6 257.28l-24.96-27.072a476.672 476.672 0 0 1 83.712-129.344 430.464 430.464 0 0 1 137.088-101.76 394.88 394.88 0 0 1 167.936-37.44c58.304 0 114.752 12.544 168 37.312a429.248 429.248 0 0 1 137.152 101.76 478.784 478.784 0 0 1 92.48 150.976 506.24 506.24 0 0 1 32.128 140.864 33.024 33.024 0 0 0 -8.96 22.784v98.112c0 17.344 12.8 31.424 28.608 31.424h34.304c15.616 0 28.544-14.08 28.544-31.424v-98.048c0-17.6-12.8-31.68-28.544-31.68zm-486.016-145.472c196.544 0 355.968 77.056 355.968 172.288s-159.36 172.352-355.968 172.352-355.968-77.12-355.968-172.288 159.488-172.288 356.032-172.288zm-377.792 65.088h-34.304l6.528-22.656 29.824 15.872z"/><path d="m286.272 537.216 112.64-23.744c15.744-3.264 18.432-26.816 4.032-34.24-36.864-19.136-87.04-41.088-106.368-31.36-20.48 10.496-27.456 45.568-29.824 69.76-1.28 12.032 8.704 21.888 19.52 19.584zm346.752-23.744 112.64 23.744c10.88 2.304 20.864-7.552 19.584-19.712-2.368-24.192-9.472-59.264-29.824-69.76-19.328-9.856-69.376 12.288-106.368 31.36-14.4 7.552-11.712 30.976 3.968 34.368z"/></g></svg>