<?xml version="1.0" standalone="no"?><!DOCTYPE svg PUBLIC "-//W3C//DTD SVG 1.1//EN" "http://www.w3.org/Graphics/SVG/1.1/DTD/svg11.dtd"><svg t="1578197982363" class="icon" viewBox="0 0 1024 1024" version="1.1" xmlns="http://www.w3.org/2000/svg" p-id="2699" xmlns:xlink="http://www.w3.org/1999/xlink" width="128" height="128"><defs><style type="text/css"></style></defs><path d="M914.105751 628.17570601a415.581159 415.581159 0 0 1-35.645756 85.976412c40.872721 45.639688 39.397731 116.046207-4.42997 159.88290699-43.8417 43.8437-114.274219 45.29769001-159.88790701 4.43397-27.28081399 15.065897-56.064617 27.020815-85.964412 35.635756-3.361977 61.15758199-54.19062999 109.883249-116.17920599 109.884249H511.9965h-0.001c-61.989576 0-112.819229-48.726667-116.18020599-109.884249-29.899796-8.615941-58.682599-20.568859-85.964412-35.635756-45.613688 40.862721-116.046207 39.408731-159.88690701-4.43397-43.8297-43.8357-45.30369001-114.246219-4.43097-159.88290701a415.569159 415.569159 0 0 1-35.645756-85.975412C48.729667 624.814729 0.001 573.995076 0.001 511.9955s48.728667-112.819229 109.886249-116.18120601a415.581159 415.581159 0 0 1 35.645756-85.975412c-40.883721-45.639688-39.397731-116.046207 4.42997-159.88390699 43.8417-43.8197 114.274219-45.29668999 159.88890699-4.43297 27.28081399-15.067897 56.064617-27.021815 85.964412-35.635756C399.178271 48.727667 450.006924 0.002 511.9965 0h0.002c61.989576 0.001 112.819229 48.728667 116.18020599 109.885249 29.899796 8.614941 58.682599 20.567859 85.964412 35.635756 45.613688-40.862721 116.046207-39.385731 159.88790701 4.43297 43.8287 43.8357 45.31468999 114.247219 4.42997 159.88390701a415.542159 415.542159 0 0 1 35.645756 85.975412C975.265333 399.177271 1023.993 449.994924 1023.993 511.9955c0 61.999576-48.727667 112.818229-109.886249 116.17920599z m-6.477955-185.99672901H877.833999l-4.30597-17.816878c-9.04593799-37.432744-23.831837-73.0915-43.9547-106.023275l-9.56593501-15.639893 21.111856-21.089856c27.21581401-27.22481399 27.21581401-71.521511 0-98.74932499-27.20681401-27.22781399-71.499511-27.24981399-98.72632499-2e-8l-21.102856 21.13685501-15.647893-9.566934c-32.941775-20.13686201-68.611531-34.934761-106.023275-43.979699l-17.806878-4.293971v-29.793796c0-38.499737-31.31678601-69.817523-69.815523-69.81952299-38.499737 0.002-69.815523 31.32078599-69.815523 69.81952299v29.793796l-17.806878 4.293971c-37.411744 9.04693801-73.0805 23.843837-106.023275 43.979699l-15.647893 9.566934-21.102856-21.13685501c-27.22481399-27.24981399-71.519511-27.22781399-98.72632501 0-27.21581401 27.22681401-27.21581401 71.523511 0 98.74932501l21.111856 21.089856-9.56593499 15.639893c-20.12386201 32.929775-34.908761 68.587531-43.9547 106.023275l-4.30597 17.816878h-29.793796c-38.499737 0-69.816523 31.31978599-69.81652301 69.817523s31.31678601 69.815523 69.81652301 69.815523h29.793796l4.30597 17.817878c9.04593799 37.432744 23.831837 73.0925 43.9547 106.023275l9.56593499 15.636893-21.122856 21.112856c-27.20581401 27.20381399-27.20581401 71.499511 0.01 98.72632499 27.22481399 27.22681401 71.511511 27.20481399 98.73732501 0L302.699931 819.994395l15.648893 9.566934c32.940775 20.13586201 68.610531 34.933761 106.023275 43.9777l17.805878 4.29497v29.794797c0 38.499737 31.31778601 69.816523 69.816523 69.81752201 38.499737 0 69.815523-31.31978599 69.815523-69.81752201v-29.794797l17.805878-4.29497c37.412744-9.04493801 73.0815-23.842837 106.023275-43.9777l15.648893-9.566934 21.089856 21.13585501c27.22381401 27.20481399 71.511511 27.22681401 98.73732499 0 27.21481401-27.22581399 27.21481401-71.523511 0.01-98.72632501l-21.12385499-21.112856 9.566934-15.636893c20.12486199-32.929775 34.908761-68.590531 43.9537-106.023275l4.30597-17.817878h29.792797c38.501737 0 69.817523-31.31778601 69.81752199-69.815523 0-38.499737-31.31778601-69.817523-69.81752199-69.817523zM511.9965 697.338233c-102.3613 0-185.342733-82.981433-185.342733-185.342733S409.6352 326.651767 511.9965 326.651767 697.339233 409.6332 697.339233 511.9965c0 102.3613-82.981433 185.342733-185.342733 185.342733z m0.511997-324.604781c-77.194472 0-139.775045 62.579572-139.775045 139.775045s62.579572 139.775045 139.775045 139.775044c77.196472 0 139.775045-62.579572 139.775044-139.775044 0-77.195472-62.579572-139.775045-139.775044-139.775045z" p-id="2700" fill="#2c2c2c"></path></svg>