<?xml version="1.0" standalone="no"?><!DOCTYPE svg PUBLIC "-//W3C//DTD SVG 1.1//EN" "http://www.w3.org/Graphics/SVG/1.1/DTD/svg11.dtd"><svg t="1578313369828" class="icon" viewBox="0 0 1024 1024" version="1.1" xmlns="http://www.w3.org/2000/svg" p-id="1609" xmlns:xlink="http://www.w3.org/1999/xlink" width="128" height="128"><defs><style type="text/css"></style></defs><path d="M19.06288018 607.87841179c20.55928378 101.02894265 71.23636292 191.91964153 146.50257169 262.79543928a45.13427361 45.13427361 0 0 0 37.54119563 11.82088119 45.21204256 45.21204256 0 0 0 32.59933202-22.10052309l58.77919028-101.79956228a45.24739209 45.24739209 0 0 0-5.655924-52.98186818 295.6846374 295.6846374 0 0 1-65.43904081-118.83803338 45.22618237 45.22618237 0 0 0-43.57182461-33.14371471H63.35583509a45.12720371 45.12720371 0 0 0-35.00309972 16.6213467 45.08478428 45.08478428 0 0 0-9.28985519 37.62603447zM617.16270455 817.14760021a45.16255322 45.16255322 0 0 0-48.81769413-21.60562972 291.19524772 291.19524772 0 0 1-147.00453494-5.83974154 45.26860181 45.26860181 0 0 0-52.34557674 20.64412264l-57.7045647 100.00380642a45.21911247 45.21911247 0 0 0-3.35113498 37.95125011 45.04943475 45.04943475 0 0 0 26.85149923 27.02824687c54.66450556 20.19164873 112.40441981 30.43594109 171.55124518 30.43594109 48.90253298 0 97.18291433-7.0628351 143.46251253-21.0188276a45.33223095 45.33223095 0 0 0 28.98661056-26.6252623 45.19790275 45.19790275 0 0 0-2.89866106-39.27332235l-58.72970095-101.70058362zM824.93307311 126.4956493a45.15548332 45.15548332 0 0 0-28.94419113-10.50587885c-2.62293476 0-5.29535886 0.2757263-7.91829362 0.72820021a45.20497266 45.20497266 0 0 0-31.20656072 21.91670555l-57.83182302 100.08157537a45.29688143 45.29688143 0 0 0 8.28592868 55.66136219 290.87710198 290.87710198 0 0 1 81.96847872 135.58663835 45.24739209 45.24739209 0 0 0 43.61424403 33.24269338h116.47668511a45.23325229 45.23325229 0 0 0 34.96068029-16.57185735 45.04943475 45.04943475 0 0 0 9.32520472-37.59068496c-22.22778137-110.14912012-82.14522636-210.49935189-168.73035306-282.54875389zM678.79106656 58.70233012a45.24032219 45.24032219 0 0 0-28.98661056-26.63233219 496.83050496 496.83050496 0 0 0-143.46251253-21.06124703c-59.14682534 0-116.88673959 10.23722246-171.55124518 30.42887118a45.26860181 45.26860181 0 0 0-23.50036425 65.04312612l57.7045647 99.98966662a45.26860181 45.26860181 0 0 0 52.34557674 20.64412264 290.99729038 290.99729038 0 0 1 85.00853789-12.63392026c20.69361199 0 41.57104148 2.2623696 61.99599705 6.75175929a45.21911247 45.21911247 0 0 0 48.81769413-21.55614039l58.73677085-101.71472344a45.16255322 45.16255322 0 0 0 2.89159116-39.25918254zM949.37754116 553.62396072h-116.47668511a45.19790275 45.19790275 0 0 0-43.61424403 33.23562348 291.01143019 291.01143019 0 0 1-81.96847872 135.59370827 45.20497266 45.20497266 0 0 0-8.28592868 55.60480292l57.83182302 100.1239948a45.15548332 45.15548332 0 0 0 31.20656072 21.92377547c2.62293476 0.45247391 5.29535886 0.67871088 7.91829362 0.67871087a45.12013379 45.12013379 0 0 0 28.94419113-10.45638951c86.5851267-72.09889133 146.5025717-172.40670367 168.73035306-282.54168399a45.03529493 45.03529493 0 0 0-9.32520472-37.59068495 45.10599399 45.10599399 0 0 0-34.96068029-16.57185736zM28.34566546 446.5785289a45.14841342 45.14841342 0 0 0 35.00309973 16.62134668h116.47668509a45.23325229 45.23325229 0 0 0 43.57182461-33.14371469 295.71291702 295.71291702 0 0 1 65.43904081-118.88045281 45.17669305 45.17669305 0 0 0 5.65592402-52.93944876L235.71304943 156.43669703a45.3887902 45.3887902 0 0 0-32.59933202-22.14294251 45.16255322 45.16255322 0 0 0-6.56794176-0.4524739c-11.4108267 0-22.552997 4.34799158-30.97325388 12.31577452C90.29924309 217.025783 39.62216397 307.90941196 19.06288018 408.94542451a45.13427361 45.13427361 0 0 0 9.28278528 37.63310439z" fill="#2c2c2c" p-id="1610"></path></svg>