<?xml version="1.0" standalone="no"?><!DOCTYPE svg PUBLIC "-//W3C//DTD SVG 1.1//EN" "http://www.w3.org/Graphics/SVG/1.1/DTD/svg11.dtd"><svg t="1578208389669" class="icon" viewBox="0 0 1024 1024" version="1.1" xmlns="http://www.w3.org/2000/svg" p-id="888" xmlns:xlink="http://www.w3.org/1999/xlink" width="128" height="128"><defs><style type="text/css"></style></defs><path d="M11.47389725 45.23221902a5.83124765 5.83124765 0 0 1 5.82542222-5.82542222h36.8574464a5.80212053 5.80212053 0 0 1 5.82542222 5.82542222v899.6257792h980.4709888a5.80794595 5.80794595 0 0 1 5.82542222 5.82542223v36.85162097a5.80794595 5.80794595 0 0 1-5.82542222 5.82542223H11.47389725V45.23221902z" p-id="889"></path><path d="M148.30723982 274.48005973c0-3.45447538 1.31654542-6.91477618 3.95546169-9.54786702a13.44507449 13.44507449 0 0 1 9.54786702-3.95546169H284.69202489c3.45447538 0 6.90895075 1.31654542 9.5420416 3.95546169 2.63891627 2.63891627 3.95546169 6.08756622 3.95546169 9.54786702V910.45888H148.30723982V274.48005973zM815.04428942 461.8256384c0-3.45447538 1.32237085-6.91477618 3.96128711-9.54786702a13.43924907 13.43924907 0 0 1 9.54786702-3.95546169h122.88145636a13.45672533 13.45672533 0 0 1 9.54786702 3.95546169c2.63309085 2.63891627 3.94963627 6.08756622 3.94963627 9.54786702v448.62741618h-149.88228835V461.8256384zM374.06565262 632.43477902a14.38879289 14.38879289 0 0 1 14.40044373-14.40626915h131.072a14.33053867 14.33053867 0 0 1 10.17701263 4.22343111c2.81367893 2.80785351 4.22343111 6.49534578 4.22343111 10.18283804v278.69984996H374.06565262v-278.69984996zM588.47031751 763.53590613c0-6.9730304 1.40392675-13.95188622 4.21760569-19.27049671 2.81367893-5.31861049 6.5011712-7.98665387 10.18283805-7.98665387h131.072c3.68749227 0 7.36915911 2.66804338 10.17701262 7.98665387 2.81367893 5.31861049 4.22343111 12.29164089 4.22343111 19.27049671v149.2123648h-159.86706205v-149.2123648z" p-id="890"></path></svg>