<?xml version="1.0" standalone="no"?><!DOCTYPE svg PUBLIC "-//W3C//DTD SVG 1.1//EN" "http://www.w3.org/Graphics/SVG/1.1/DTD/svg11.dtd"><svg t="1578915772721" class="icon" viewBox="0 0 1024 1024" version="1.1" xmlns="http://www.w3.org/2000/svg" p-id="1279" xmlns:xlink="http://www.w3.org/1999/xlink" width="128" height="128"><defs><style type="text/css"></style></defs><path d="M161.28 213.333333h79.36c-9.386667 11.093333-23.893333 18.773333-40.106667 18.773334-15.36 0-29.866667-7.68-39.253333-18.773334zM579.413333 213.333333h79.36c-9.386667 11.093333-23.893333 18.773333-40.106666 18.773334-15.36 0-29.866667-7.68-39.253334-18.773334z" fill="#2c2c2c" p-id="1280"></path><path d="M891.733333 213.333333v625.493334c0 13.653333-11.093333 24.746667-24.746666 24.746666H113.493333v-56.32h696.32V323.413333H113.493333v-66.56c0-11.093333 4.266667-22.186667 11.946667-29.866666 3.413333 5.12 7.68 10.24 11.946667 15.36 16.213333 17.066667 39.253333 27.306667 64 27.306666 29.866667 0 56.32-14.506667 72.533333-37.546666 4.266667-5.973333 7.68-11.946667 10.24-18.773334h252.586667c2.56 6.826667 5.973333 12.8 10.24 18.773334 16.213333 23.04 42.666667 37.546667 72.533333 37.546666s56.32-14.506667 72.533333-37.546666c4.266667-5.973333 7.68-11.946667 10.24-18.773334h189.44z" fill="#2c2c2c" p-id="1281"></path><path d="M1019.733333 256.853333v715.093334c0 13.653333-11.093333 24.746667-24.746666 24.746666H156.16c-13.653333 0-24.746667-11.093333-24.746667-24.746666v-71.68h735.573334c34.133333 0 62.293333-28.16 62.293333-62.293334v-605.866666h64.853333c14.506667 0 25.6 11.093333 25.6 24.746666z" fill="#2c2c2c" p-id="1282"></path><path d="M570.026667 194.56c1.706667 6.826667 5.12 13.653333 10.24 18.773333 9.386667 11.093333 23.893333 18.773333 40.106666 18.773334 16.213333 0 30.72-7.68 40.106667-18.773334 4.266667-5.12 7.68-11.946667 10.24-18.773333H570.026667z m137.386666 0c-0.853333 6.826667-2.56 12.8-5.12 18.773333-2.56 6.826667-5.973333 12.8-10.24 18.773334h199.68v-37.546667H707.413333z m-582.826666 32.426667c-3.413333-5.973333-5.973333-11.946667-8.533334-17.92-13.653333 11.093333-22.186667 28.16-22.186666 47.786666v66.56h37.546666v-66.56c0-5.12 1.706667-10.24 5.12-14.506666-4.266667-4.266667-8.533333-9.386667-11.946666-15.36z m-29.866667 579.413333v56.32h37.546667v-56.32h-37.546667zM536.746667 213.333333c-2.56-5.973333-4.266667-11.946667-5.12-18.773333H288.426667c-0.853333 6.826667-2.56 12.8-5.12 18.773333-2.56 6.826667-5.973333 12.8-10.24 18.773334h273.066666c-3.413333-5.973333-6.826667-11.946667-9.386666-18.773334z m-380.586667-18.773333h-5.12c1.706667 6.826667 5.12 12.8 9.386667 18.773333 9.386667 11.093333 23.893333 18.773333 40.106666 18.773334 16.213333 0 29.866667-7.68 40.106667-18.773334 4.266667-5.12 7.68-11.946667 10.24-18.773333H156.16z" fill="#2c2c2c" p-id="1283"></path><path d="M151.04 194.56c-1.706667-4.266667-1.706667-9.386667-1.706667-14.506667V83.626667v-4.266667h102.4v101.546667c0 5.12-0.853333 9.386667-1.706666 13.653333-1.706667 6.826667-5.12 13.653333-10.24 18.773333-9.386667 11.093333-23.893333 18.773333-40.106667 18.773334-16.213333 0-30.72-7.68-40.106667-18.773334-3.413333-5.12-5.973333-11.946667-8.533333-18.773333z" fill="#2c2c2c" p-id="1284"></path><path d="M670.72 79.36H567.466667v101.546667c0 5.12 0.853333 9.386667 1.706666 13.653333 1.706667 6.826667 5.12 13.653333 10.24 18.773333 9.386667 11.093333 23.893333 18.773333 40.106667 18.773334 16.213333 0 29.866667-7.68 40.106667-18.773334 4.266667-5.12 7.68-11.946667 9.386666-18.773333 1.706667-4.266667 1.706667-9.386667 1.706667-13.653333V83.626667v-4.266667z m197.12 18.773333H708.266667v81.92c0 5.12-0.853333 9.386667-0.853334 13.653334-0.853333 6.826667-2.56 12.8-5.12 18.773333-2.56 6.826667-5.973333 12.8-10.24 18.773333-16.213333 23.04-42.666667 37.546667-72.533333 37.546667s-56.32-14.506667-72.533333-37.546667c-4.266667-5.973333-7.68-11.946667-10.24-18.773333-2.56-5.973333-4.266667-11.946667-5.12-18.773333-0.853333-4.266667-0.853333-9.386667-0.853334-13.653334v-81.92H290.133333v81.92c0 5.12 0 9.386667-0.853333 13.653334-0.853333 6.826667-2.56 12.8-5.12 18.773333-2.56 6.826667-5.973333 12.8-10.24 18.773333-16.213333 23.04-42.666667 37.546667-72.533333 37.546667-25.6 0-47.786667-10.24-64-27.306667-4.266667-4.266667-8.533333-9.386667-11.946667-15.36-3.413333-5.973333-5.973333-11.946667-8.533333-17.92-3.413333-9.386667-5.12-18.773333-5.12-29.013333v-81.92H29.013333c-13.653333 0-24.746667 11.093333-24.746666 24.746667v715.946666c0 13.653333 11.093333 24.746667 24.746666 24.746667h837.973334c13.653333 0 24.746667-11.093333 24.746666-24.746667V122.88c0-13.653333-11.093333-24.746667-23.893333-24.746667z m-58.026667 708.266667H87.04V323.413333h722.773333v482.986667z" fill="#2c2c2c" p-id="1285"></path><path d="M670.72 79.36c-0.853333-6.826667-2.56-12.8-5.12-18.773333H573.44c-2.56 5.973333-5.12 11.946667-5.12 18.773333v18.773333h103.253333V83.626667c-0.853333-1.706667-0.853333-2.56-0.853333-4.266667z m-418.986667 0c-0.853333-6.826667-2.56-12.8-5.12-18.773333H154.453333c-2.56 5.973333-4.266667 11.946667-5.12 18.773333v18.773333h103.253334V83.626667c0-1.706667-0.853333-2.56-0.853334-4.266667z" fill="#2c2c2c" p-id="1286"></path><path d="M252.586667 83.626667v97.28c0 5.12-0.853333 9.386667-1.706667 13.653333-1.706667 6.826667-5.12 13.653333-10.24 18.773333-9.386667 11.093333-23.893333 18.773333-40.106667 18.773334-16.213333 0-30.72-7.68-40.106666-18.773334-4.266667-5.12-7.68-11.946667-9.386667-18.773333-1.706667-4.266667-1.706667-9.386667-1.706667-14.506667V83.626667v-4.266667c0.853333-6.826667 2.56-12.8 5.12-18.773333 8.533333-17.066667 25.6-29.013333 46.08-29.013334 20.48 0 37.546667 11.946667 46.08 29.013334 2.56 5.973333 4.266667 11.946667 5.12 18.773333 0.853333 1.706667 0.853333 2.56 0.853334 4.266667zM670.72 83.626667v97.28c0 5.12-0.853333 9.386667-1.706667 13.653333-1.706667 6.826667-5.12 13.653333-10.24 18.773333-9.386667 11.093333-23.893333 18.773333-40.106666 18.773334-16.213333 0-29.866667-7.68-40.106667-18.773334-4.266667-5.12-7.68-11.946667-10.24-18.773333-1.706667-4.266667-1.706667-9.386667-1.706667-13.653333V83.626667v-4.266667c0.853333-6.826667 2.56-12.8 5.12-18.773333 8.533333-17.066667 25.6-29.013333 46.08-29.013334C640 31.573333 657.066667 43.52 665.6 60.586667c2.56 5.973333 4.266667 11.946667 5.12 18.773333v4.266667z" fill="#2c2c2c" p-id="1287"></path><path d="M193.706667 406.186667m-40.106667 0a40.106667 40.106667 0 1 0 80.213333 0 40.106667 40.106667 0 1 0-80.213333 0Z" fill="#2c2c2c" p-id="1288"></path><path d="M363.52 406.186667m-40.106667 0a40.106667 40.106667 0 1 0 80.213334 0 40.106667 40.106667 0 1 0-80.213334 0Z" fill="#2c2c2c" p-id="1289"></path><path d="M533.333333 406.186667m-40.106666 0a40.106667 40.106667 0 1 0 80.213333 0 40.106667 40.106667 0 1 0-80.213333 0Z" fill="#2c2c2c" p-id="1290"></path><path d="M703.146667 406.186667m-40.106667 0a40.106667 40.106667 0 1 0 80.213333 0 40.106667 40.106667 0 1 0-80.213333 0Z" fill="#2c2c2c" p-id="1291"></path><path d="M193.706667 552.96m-40.106667 0a40.106667 40.106667 0 1 0 80.213333 0 40.106667 40.106667 0 1 0-80.213333 0Z" fill="#2c2c2c" p-id="1292"></path><path d="M363.52 552.96m-40.106667 0a40.106667 40.106667 0 1 0 80.213334 0 40.106667 40.106667 0 1 0-80.213334 0Z" fill="#2c2c2c" p-id="1293"></path><path d="M533.333333 552.96m-40.106666 0a40.106667 40.106667 0 1 0 80.213333 0 40.106667 40.106667 0 1 0-80.213333 0Z" fill="#2c2c2c" p-id="1294"></path><path d="M703.146667 552.96m-40.106667 0a40.106667 40.106667 0 1 0 80.213333 0 40.106667 40.106667 0 1 0-80.213333 0Z" fill="#2c2c2c" p-id="1295"></path><path d="M193.706667 699.733333m-40.106667 0a40.106667 40.106667 0 1 0 80.213333 0 40.106667 40.106667 0 1 0-80.213333 0Z" fill="#2c2c2c" p-id="1296"></path><path d="M363.52 699.733333m-40.106667 0a40.106667 40.106667 0 1 0 80.213334 0 40.106667 40.106667 0 1 0-80.213334 0Z" fill="#2c2c2c" p-id="1297"></path><path d="M533.333333 699.733333m-40.106666 0a40.106667 40.106667 0 1 0 80.213333 0 40.106667 40.106667 0 1 0-80.213333 0Z" fill="#2c2c2c" p-id="1298"></path><path d="M703.146667 699.733333m-40.106667 0a40.106667 40.106667 0 1 0 80.213333 0 40.106667 40.106667 0 1 0-80.213333 0Z" fill="#2c2c2c" p-id="1299"></path></svg>