<?xml version="1.0" standalone="no"?><!DOCTYPE svg PUBLIC "-//W3C//DTD SVG 1.1//EN" "http://www.w3.org/Graphics/SVG/1.1/DTD/svg11.dtd"><svg t="1578915778697" class="icon" viewBox="0 0 1024 1024" version="1.1" xmlns="http://www.w3.org/2000/svg" p-id="1420" xmlns:xlink="http://www.w3.org/1999/xlink" width="128" height="128"><defs><style type="text/css"></style></defs><path d="M158 573.8V450.2c48.2-12.1 84-55.8 84-107.7 0-51.9-35.8-95.6-84-107.7V68.1c0-14.9-12.1-27-27-27s-27 12.1-27 27v166.7C55.79999999 246.9 20 290.6 20 342.5c0 51.9 35.8 95.6 84 107.7v123.7c-48.2 12-84 55.7-84 107.6s35.8 95.6 84 107.7v166.7c0 14.9 12.1 27 27 27s27-12.1 27-27V789.2c48.2-12.1 84-55.8 84-107.7s-35.8-95.6-84-107.7zM80 342.5c0-28.1 22.9-51 51-51s51 22.9 51 51-22.9 51-51 51-51-22.9-51-51z m51 390c-28.1 0-51-22.9-51-51s22.9-51 51-51 51 22.9 51 51-22.9 51-51 51zM962 283H371.99999999c-16.6 0-30-13.4-30-30s13.4-30 30-30h590.00000001c16.6 0 30 13.4 30 30s-13.4 30-30 30zM791.39999999 457H367.6c-14.2 0-25.6-11.5-25.60000001-25.6v-8.7c0-14.2 11.5-25.6 25.60000001-25.6h423.7c14.2 0 25.6 11.5 25.59999999 25.6v8.7c0.1 14.1-11.4 25.6-25.5 25.6z" fill="#2c2c2c" p-id="1421"></path><path d="M962 625H371.99999999c-16.6 0-30-13.4-30-30s13.4-30 30-30h590.00000001c16.6 0 30 13.4 30 30s-13.4 30-30 30zM791.39999999 799H367.6c-14.2 0-25.6-11.5-25.60000001-25.6v-8.7c0-14.2 11.5-25.6 25.60000001-25.6h423.7c14.2 0 25.6 11.5 25.59999999 25.6v8.7c0.1 14.1-11.4 25.6-25.5 25.6z" fill="#2c2c2c" p-id="1422"></path></svg>